<svg width="200" height="32" viewBox="0 0 200 32" fill="none" xmlns="http://www.w3.org/2000/svg">
<path d="M21.7128 9.46899H21.0047C20.8678 8.22288 20.4339 7.02779 19.7396 5.98404C19.1118 5.03168 18.2628 4.24546 17.2651 3.69258C16.3226 3.17109 15.2631 2.89733 14.186 2.89693C12.8585 2.9 11.5631 3.30499 10.4703 4.05857C9.21785 4.9647 8.24254 6.20174 7.65368 7.63104C6.87387 9.51275 6.50234 11.5386 6.56364 13.5745C6.50691 15.4341 6.84874 17.2843 7.56615 19.0009C8.09655 20.3208 8.99734 21.4592 10.16 22.2789C11.1939 22.9758 12.414 23.3446 13.6608 23.3371C14.7249 23.3215 15.7698 23.0514 16.7082 22.5495C17.7323 22.0166 18.6283 21.2673 19.3338 20.3535C20.1136 19.3522 20.6723 18.197 20.9728 16.964H21.681V21.0377C20.5632 22.1525 19.239 23.0389 17.7823 23.6474C16.2741 24.2941 14.6493 24.6244 13.0084 24.6181C10.995 24.6295 9.01495 24.1048 7.27134 23.0981C5.52774 22.0914 4.08342 20.6388 3.08665 18.8895C2.08058 17.1295 1.56409 15.1322 1.59083 13.1051C1.57376 11.0751 2.10129 9.07761 3.11848 7.32073C4.11334 5.56975 5.55723 4.1158 7.30127 3.10882C9.04532 2.10183 11.0264 1.57825 13.0402 1.59206C14.6806 1.58281 16.3055 1.91049 17.8141 2.5548C19.2686 3.17099 20.5919 4.05949 21.7128 5.17248V9.46899Z" fill="white"/>
<path d="M33.6085 5.99207C34.0618 5.90941 34.4911 5.72735 34.8656 5.45898L40.5306 21.4277L41.0717 22.8996C41.2069 23.2656 41.3104 23.5282 41.374 23.6953C41.4377 23.8623 41.5013 23.9658 41.5331 24.0294V24.1329H36.9661V23.9499C36.9834 23.8231 36.9834 23.6947 36.9661 23.568C36.9418 23.299 36.8939 23.0328 36.8229 22.7723C36.7433 22.4222 36.6001 21.9767 36.4171 21.4038L31.866 8.33128H32.2798L27.3069 21.4277C27.0842 21.9952 26.9171 22.4647 26.8057 22.836C26.718 23.0948 26.6541 23.3611 26.6147 23.6316C26.5986 23.7504 26.5986 23.8708 26.6147 23.9896V24.1408H25.0234V24.0374L25.1905 23.7032C25.2621 23.552 25.3815 23.2895 25.5327 22.9076C25.6838 22.5257 25.8827 22.0483 26.1214 21.4356L32.0251 6.17507C32.5581 6.17318 33.0892 6.1118 33.6085 5.99207ZM36.7911 18.6349V19.7091H27.5854V18.6349H36.7911Z" fill="white"/>
<path d="M56.2528 7.68659C56.8868 8.17193 57.3949 8.80259 57.7342 9.52542C58.0734 10.2482 58.2339 11.042 58.2021 11.8399C58.2312 13.0171 57.8673 14.1705 57.1678 15.1179C56.4588 16.0433 55.5092 16.7561 54.4228 17.1787C53.2541 17.6461 52.0056 17.8813 50.7469 17.8709C50.5082 17.8709 50.2695 17.8709 50.0388 17.8709C49.808 17.8709 49.5694 17.8311 49.3307 17.7913V16.9957H49.6648C50.5185 17.0117 51.3622 16.809 52.1154 16.4069C52.8233 16.0082 53.3987 15.4107 53.7704 14.6883C54.1785 13.8602 54.3805 12.9458 54.3592 12.0229C54.3816 11.126 54.2162 10.2344 53.8738 9.40519C53.574 8.73586 53.0699 8.17876 52.4337 7.81389C51.7292 7.42264 50.9317 7.23014 50.1263 7.25694H47.8985L48.3122 6.85116V21.4274C48.3122 21.9048 48.3122 22.2947 48.3122 22.605C48.3122 22.9153 48.3122 23.1699 48.352 23.4007C48.3663 23.6115 48.3928 23.8214 48.4316 24.0292V24.1326H44.334V24.0292C44.334 23.8223 44.3976 23.6155 44.4135 23.4007C44.4295 23.1858 44.4135 22.9312 44.4135 22.605C44.4135 22.2788 44.4135 21.9048 44.4135 21.4274V8.86415C44.4135 8.38676 44.4135 7.99689 44.4135 7.68659C44.4135 7.37628 44.4135 7.12168 44.4135 6.89094C44.4135 6.6602 44.3658 6.46924 44.334 6.26238V6.17485H50.9777C52.856 6.07105 54.7145 6.60365 56.2528 7.68659Z" fill="white"/>
<path d="M72.936 6.17578V7.43291H72.8326C72.636 7.38245 72.4368 7.34261 72.2359 7.31356C72.037 7.31356 71.7983 7.27378 71.5118 7.26582H70.5014H68.552L68.9658 6.86004V21.4284C68.9658 21.8898 68.9658 22.2718 68.9658 22.5661C68.9658 22.8605 68.9658 23.1151 69.0135 23.3141C69.0612 23.513 69.0692 23.696 69.101 23.8869V24.0142V24.1177H64.9398V24.0142V23.8869C64.9398 23.696 65.0034 23.505 65.0353 23.3141C65.0671 23.1231 65.0353 22.8685 65.083 22.5661C65.1307 22.2638 65.083 21.8898 65.083 21.4284V6.84413L65.4888 7.24991H63.5792H62.5687C62.2929 7.24991 62.0542 7.26582 61.8527 7.29765C61.6491 7.32667 61.4473 7.36651 61.248 7.41699H61.1445V6.17578H72.936Z" fill="white"/>
<path d="M81.8719 5.99207C82.3245 5.90742 82.7535 5.72554 83.129 5.45898L88.794 21.4277L89.3351 22.8996C89.4703 23.2656 89.5738 23.5282 89.6374 23.6953C89.6846 23.8093 89.7377 23.9209 89.7965 24.0294V24.1329H85.2295V23.9499C85.2427 23.8229 85.2427 23.6949 85.2295 23.568C85.2052 23.299 85.1573 23.0328 85.0863 22.7723C84.9988 22.4222 84.8635 21.9767 84.6805 21.4038L80.1294 8.33128H80.5431L75.5862 21.4277C75.3635 22.0058 75.1964 22.4753 75.085 22.836C74.9973 23.0948 74.9334 23.3611 74.894 23.6316C74.8779 23.7504 74.8779 23.8708 74.894 23.9896V24.1408H73.3027V24.0374L73.4698 23.7032C73.5414 23.552 73.6608 23.2895 73.8119 22.9076C73.9631 22.5257 74.162 22.0483 74.4007 21.4356L80.2885 6.17507C80.8215 6.17318 81.3525 6.1118 81.8719 5.99207ZM85.0545 18.6349V19.7091H75.8488V18.6349H85.0545Z" fill="white"/>
<path d="M96.9023 6.17578V6.27922C96.9023 6.48608 96.8466 6.69295 96.8307 6.90778C96.8148 7.1226 96.8307 7.37721 96.8307 7.70343C96.8307 8.02964 96.8307 8.4036 96.8307 8.88099V21.4284C96.8307 21.9058 96.8307 22.2956 96.8307 22.6059C96.8307 22.9162 96.8307 23.1708 96.8307 23.4016C96.8307 23.6323 96.8307 23.8233 96.9023 24.0301V24.1336H92.8047V24.0301C92.8047 23.8233 92.8604 23.6164 92.8843 23.4016C92.9081 23.1868 92.8843 22.9321 92.8843 22.6059C92.8843 22.2797 92.8843 21.9058 92.8843 21.4284V8.86507C92.8843 8.38768 92.8843 7.99782 92.8843 7.68751C92.8843 7.37721 92.8843 7.1226 92.8843 6.89186C92.8843 6.66113 92.8365 6.47017 92.8047 6.2633V6.17578H96.9023Z" fill="white"/>
<path d="M102.447 6.17455L116.387 19.0959H115.727V8.86384C115.727 8.38645 115.727 7.99658 115.727 7.68628C115.727 7.37598 115.727 7.12137 115.679 6.89063C115.651 6.67896 115.612 6.46908 115.56 6.26207V6.17455H116.96V6.27798C116.96 6.48485 116.896 6.69172 116.88 6.90654C116.864 7.12137 116.88 7.37598 116.88 7.70219C116.88 8.02841 116.88 8.40236 116.88 8.87975V21.6817C116.88 22.0716 116.88 22.4137 116.88 22.7081C116.88 23.0025 116.88 23.2492 116.928 23.464C116.954 23.6857 117.002 23.9043 117.071 24.1164H116.276L102.24 11.2269H102.909V21.4271C102.909 21.9045 102.909 22.2944 102.909 22.6047C102.909 22.915 102.909 23.1696 102.965 23.4003C102.989 23.6119 103.027 23.8217 103.076 24.0289V24.1323H101.691V24.0289C101.73 23.8211 101.757 23.6112 101.771 23.4003C101.771 23.1855 101.771 22.9309 101.771 22.6047C101.771 22.2785 101.771 21.9045 101.771 21.4271V8.60923C101.771 8.21937 101.771 7.87724 101.771 7.58285C101.769 7.31675 101.75 7.05104 101.715 6.7872C101.689 6.56632 101.643 6.34808 101.58 6.13477L102.447 6.17455Z" fill="white"/>
<path d="M140.335 1.5918V1.7191C140.287 1.98166 140.256 2.24423 140.232 2.51475C140.208 2.78527 140.232 3.11149 140.184 3.50135C140.136 3.89122 140.184 4.37657 140.184 4.98126V20.2259C140.232 21.9391 139.828 23.6348 139.014 25.143C138.244 26.4836 137.118 27.585 135.76 28.3256C134.283 29.1262 132.659 29.6188 130.986 29.7737V28.978C131.891 28.6649 132.696 28.1155 133.318 27.3867C134.04 26.5107 134.562 25.4868 134.845 24.3871C135.242 22.8928 135.427 21.35 135.394 19.8042V4.9733C135.394 4.36861 135.394 3.87531 135.394 3.4934C135.394 3.11149 135.394 2.77731 135.346 2.50679C135.299 2.23627 135.291 1.98166 135.243 1.71114V1.5918H140.335Z" fill="white"/>
<path d="M151.833 5.99207C152.286 5.90941 152.716 5.72735 153.09 5.45898L158.755 21.4277L159.296 22.8996C159.432 23.2656 159.535 23.5282 159.599 23.6953C159.662 23.8623 159.726 23.9658 159.758 24.0294V24.1329H155.191V23.9499C155.208 23.8231 155.208 23.6947 155.191 23.568C155.166 23.299 155.119 23.0328 155.048 22.7723C154.968 22.4222 154.825 21.9767 154.642 21.4038L150.091 8.33128H150.504L145.532 21.4277C145.309 22.0058 145.142 22.4753 145.03 22.836C144.943 23.0948 144.879 23.3611 144.839 23.6316C144.823 23.7504 144.823 23.8708 144.839 23.9896V24.1408H143.248V24.0374L143.415 23.7032C143.487 23.552 143.606 23.2895 143.757 22.9076C143.908 22.5257 144.107 22.0483 144.346 21.4356L150.274 6.18302C150.799 6.17676 151.322 6.11273 151.833 5.99207ZM155.016 18.6349V19.7091H145.786V18.6349H155.016Z" fill="white"/>
<path d="M177.771 12.0477H177.174C177.066 11.0209 176.711 10.0356 176.14 9.17539C175.623 8.39165 174.924 7.74467 174.103 7.2897C173.326 6.85991 172.453 6.63536 171.565 6.63727C170.469 6.63573 169.4 6.97189 168.502 7.6C167.469 8.34363 166.665 9.36034 166.178 10.5359C165.538 12.0854 165.234 13.7534 165.287 15.4292C165.232 16.9593 165.503 18.4838 166.083 19.9007C166.523 20.9822 167.266 21.9133 168.223 22.5821C169.074 23.1541 170.078 23.4564 171.104 23.4493C171.988 23.4482 172.859 23.2325 173.642 22.8208C174.499 22.3893 175.249 21.7723 175.838 21.0146C176.482 20.1916 176.941 19.2389 177.182 18.2219H177.779V21.5796C176.853 22.498 175.759 23.23 174.557 23.7358C173.314 24.2651 171.977 24.5358 170.626 24.5314C168.967 24.5384 167.336 24.1053 165.9 23.2765C164.463 22.4476 163.271 21.2526 162.447 19.8132C161.61 18.3624 161.176 16.7142 161.19 15.0393C161.178 13.379 161.605 11.745 162.426 10.302C163.247 8.85904 164.435 7.6581 165.868 6.82027C167.316 5.97498 168.966 5.5378 170.642 5.55519C172.009 5.5447 173.363 5.81553 174.62 6.35084C175.808 6.86136 176.888 7.59309 177.803 8.50704L177.771 12.0477Z" fill="white"/>
<path d="M185.974 6.17578V6.27922C185.925 6.48638 185.887 6.69626 185.863 6.90778C185.863 7.1226 185.815 7.37721 185.807 7.70343C185.799 8.02964 185.807 8.4036 185.807 8.88099V14.1641H185.385L191.026 8.88099C191.504 8.43542 191.933 8.02169 192.323 7.63977C192.713 7.25786 192.992 6.95552 193.175 6.73274C193.303 6.61128 193.401 6.46139 193.461 6.29513V6.17578H195.482V6.27922C195.299 6.41448 195.108 6.56565 194.909 6.74069C194.71 6.91573 194.487 7.11465 194.225 7.34538L193.381 8.14103L192.586 8.88099L190.613 10.7508V9.95511L195.538 20.8953C195.808 21.5554 196.138 22.1892 196.524 22.7889C196.79 23.1637 197.1 23.5056 197.447 23.8074V24.1177C196.654 24.3235 195.824 24.3363 195.025 24.155C194.226 23.9736 193.482 23.6034 192.856 23.0754C192.151 22.488 191.603 21.7329 191.265 20.8794L187.804 12.6046H188.448L185.449 15.3974L185.783 14.7051V21.3965C185.783 21.8739 185.783 22.2638 185.783 22.5741C185.783 22.8844 185.783 23.139 185.839 23.3698C185.863 23.5813 185.901 23.7911 185.95 23.9983V24.1017H181.805V23.9983C181.805 23.7914 181.86 23.5846 181.876 23.3698C181.892 23.1549 181.876 22.9003 181.876 22.5741C181.876 22.2479 181.876 21.8739 181.876 21.3965V8.86507C181.876 8.38769 181.876 7.99782 181.876 7.68751C181.876 7.37721 181.876 7.1226 181.876 6.89186C181.876 6.66113 181.837 6.47017 181.805 6.2633V6.17578H185.974Z" fill="white"/>
<path d="M21.7128 9.46899H21.0047C20.8678 8.22288 20.4339 7.02779 19.7396 5.98404C19.1118 5.03168 18.2628 4.24546 17.2651 3.69258C16.3226 3.17109 15.2631 2.89733 14.186 2.89693C12.8585 2.9 11.5631 3.30499 10.4703 4.05857C9.21785 4.9647 8.24254 6.20174 7.65368 7.63104C6.87387 9.51275 6.50234 11.5386 6.56364 13.5745C6.50691 15.4341 6.84874 17.2843 7.56615 19.0009C8.09655 20.3208 8.99734 21.4592 10.16 22.2789C11.1939 22.9758 12.414 23.3446 13.6608 23.3371C14.7249 23.3215 15.7698 23.0514 16.7082 22.5495C17.7323 22.0166 18.6283 21.2673 19.3338 20.3535C20.1136 19.3522 20.6723 18.197 20.9728 16.964H21.681V21.0377C20.5632 22.1525 19.239 23.0389 17.7823 23.6474C16.2741 24.2941 14.6493 24.6244 13.0084 24.6181C10.995 24.6295 9.01495 24.1048 7.27134 23.0981C5.52774 22.0914 4.08342 20.6388 3.08665 18.8895C2.08058 17.1295 1.56409 15.1322 1.59083 13.1051C1.57376 11.0751 2.10129 9.07761 3.11848 7.32073C4.11334 5.56975 5.55723 4.1158 7.30127 3.10882C9.04532 2.10183 11.0264 1.57825 13.0402 1.59206C14.6806 1.58281 16.3055 1.91049 17.8141 2.5548C19.2686 3.17099 20.5919 4.05949 21.7128 5.17248V9.46899Z" stroke="#1D1D1B" stroke-width="2.7" stroke-linecap="round" stroke-linejoin="round"/>
<path d="M33.6085 5.99207C34.0618 5.90941 34.4911 5.72735 34.8656 5.45898L40.5306 21.4277L41.0717 22.8996C41.2069 23.2656 41.3104 23.5282 41.374 23.6953C41.4377 23.8623 41.5013 23.9658 41.5331 24.0294V24.1329H36.9661V23.9499C36.9834 23.8231 36.9834 23.6947 36.9661 23.568C36.9418 23.299 36.8939 23.0328 36.8229 22.7723C36.7433 22.4222 36.6001 21.9767 36.4171 21.4038L31.866 8.33128H32.2798L27.3069 21.4277C27.0842 21.9952 26.9171 22.4647 26.8057 22.836C26.718 23.0948 26.6541 23.3611 26.6147 23.6316C26.5986 23.7504 26.5986 23.8708 26.6147 23.9896V24.1408H25.0234V24.0374L25.1905 23.7032C25.2621 23.552 25.3815 23.2895 25.5327 22.9076C25.6838 22.5257 25.8827 22.0483 26.1214 21.4356L32.0251 6.17507C32.5581 6.17318 33.0892 6.1118 33.6085 5.99207ZM36.7911 18.6349V19.7091H27.5854V18.6349H36.7911Z" stroke="#1D1D1B" stroke-width="2.7" stroke-linecap="round" stroke-linejoin="round"/>
<path d="M56.2528 7.68659C56.8868 8.17193 57.3949 8.80259 57.7342 9.52542C58.0734 10.2482 58.2339 11.042 58.2021 11.8399C58.2312 13.0171 57.8673 14.1705 57.1678 15.1179C56.4588 16.0433 55.5092 16.7561 54.4228 17.1787C53.2541 17.6461 52.0056 17.8813 50.7469 17.8709C50.5082 17.8709 50.2695 17.8709 50.0388 17.8709C49.808 17.8709 49.5694 17.8311 49.3307 17.7913V16.9957H49.6648C50.5185 17.0117 51.3622 16.809 52.1154 16.4069C52.8233 16.0082 53.3987 15.4107 53.7704 14.6883C54.1785 13.8602 54.3805 12.9458 54.3592 12.0229C54.3816 11.126 54.2162 10.2344 53.8738 9.40519C53.574 8.73586 53.0699 8.17876 52.4337 7.81389C51.7292 7.42264 50.9317 7.23014 50.1263 7.25694H47.8985L48.3122 6.85116V21.4274C48.3122 21.9048 48.3122 22.2947 48.3122 22.605C48.3122 22.9153 48.3122 23.1699 48.352 23.4007C48.3663 23.6115 48.3928 23.8214 48.4316 24.0292V24.1326H44.334V24.0292C44.334 23.8223 44.3976 23.6155 44.4135 23.4007C44.4295 23.1858 44.4135 22.9312 44.4135 22.605C44.4135 22.2788 44.4135 21.9048 44.4135 21.4274V8.86415C44.4135 8.38676 44.4135 7.99689 44.4135 7.68659C44.4135 7.37628 44.4135 7.12168 44.4135 6.89094C44.4135 6.6602 44.3658 6.46924 44.334 6.26238V6.17485H50.9777C52.856 6.07105 54.7145 6.60365 56.2528 7.68659Z" stroke="#1D1D1B" stroke-width="2.7" stroke-linecap="round" stroke-linejoin="round"/>
<path d="M72.936 6.17578V7.43291H72.8326C72.636 7.38245 72.4368 7.34261 72.2359 7.31356C72.037 7.31356 71.7983 7.27378 71.5118 7.26582H70.5014H68.552L68.9658 6.86004V21.4284C68.9658 21.8898 68.9658 22.2718 68.9658 22.5661C68.9658 22.8605 68.9658 23.1151 69.0135 23.3141C69.0612 23.513 69.0692 23.696 69.101 23.8869V24.0142V24.1177H64.9398V24.0142V23.8869C64.9398 23.696 65.0034 23.505 65.0353 23.3141C65.0671 23.1231 65.0353 22.8685 65.083 22.5661C65.1307 22.2638 65.083 21.8898 65.083 21.4284V6.84413L65.4888 7.24991H63.5792H62.5687C62.2929 7.24991 62.0542 7.26582 61.8527 7.29765C61.6491 7.32667 61.4473 7.36651 61.248 7.41699H61.1445V6.17578H72.936Z" stroke="#1D1D1B" stroke-width="2.7" stroke-linecap="round" stroke-linejoin="round"/>
<path d="M81.8719 5.99207C82.3245 5.90742 82.7535 5.72554 83.129 5.45898L88.794 21.4277L89.3351 22.8996C89.4703 23.2656 89.5738 23.5282 89.6374 23.6953C89.6846 23.8093 89.7377 23.9209 89.7965 24.0294V24.1329H85.2295V23.9499C85.2427 23.8229 85.2427 23.6949 85.2295 23.568C85.2052 23.299 85.1573 23.0328 85.0863 22.7723C84.9988 22.4222 84.8635 21.9767 84.6805 21.4038L80.1294 8.33128H80.5431L75.5862 21.4277C75.3635 22.0058 75.1964 22.4753 75.085 22.836C74.9973 23.0948 74.9334 23.3611 74.894 23.6316C74.8779 23.7504 74.8779 23.8708 74.894 23.9896V24.1408H73.3027V24.0374L73.4698 23.7032C73.5414 23.552 73.6608 23.2895 73.8119 22.9076C73.9631 22.5257 74.162 22.0483 74.4007 21.4356L80.2885 6.17507C80.8215 6.17318 81.3525 6.1118 81.8719 5.99207ZM85.0545 18.6349V19.7091H75.8488V18.6349H85.0545Z" stroke="#1D1D1B" stroke-width="2.7" stroke-linecap="round" stroke-linejoin="round"/>
<path d="M96.9023 6.17578V6.27922C96.9023 6.48608 96.8466 6.69295 96.8307 6.90778C96.8148 7.1226 96.8307 7.37721 96.8307 7.70343C96.8307 8.02964 96.8307 8.4036 96.8307 8.88099V21.4284C96.8307 21.9058 96.8307 22.2956 96.8307 22.6059C96.8307 22.9162 96.8307 23.1708 96.8307 23.4016C96.8307 23.6323 96.8307 23.8233 96.9023 24.0301V24.1336H92.8047V24.0301C92.8047 23.8233 92.8604 23.6164 92.8843 23.4016C92.9081 23.1868 92.8843 22.9321 92.8843 22.6059C92.8843 22.2797 92.8843 21.9058 92.8843 21.4284V8.86507C92.8843 8.38768 92.8843 7.99782 92.8843 7.68751C92.8843 7.37721 92.8843 7.1226 92.8843 6.89186C92.8843 6.66113 92.8365 6.47017 92.8047 6.2633V6.17578H96.9023Z" stroke="#1D1D1B" stroke-width="2.7" stroke-linecap="round" stroke-linejoin="round"/>
<path d="M102.447 6.17455L116.387 19.0959H115.727V8.86384C115.727 8.38645 115.727 7.99658 115.727 7.68628C115.727 7.37598 115.727 7.12137 115.679 6.89063C115.651 6.67896 115.612 6.46908 115.56 6.26207V6.17455H116.96V6.27798C116.96 6.48485 116.896 6.69172 116.88 6.90654C116.864 7.12137 116.88 7.37598 116.88 7.70219C116.88 8.02841 116.88 8.40236 116.88 8.87975V21.6817C116.88 22.0716 116.88 22.4137 116.88 22.7081C116.88 23.0025 116.88 23.2492 116.928 23.464C116.954 23.6857 117.002 23.9043 117.071 24.1164H116.276L102.24 11.2269H102.909V21.4271C102.909 21.9045 102.909 22.2944 102.909 22.6047C102.909 22.915 102.909 23.1696 102.965 23.4003C102.989 23.6119 103.027 23.8217 103.076 24.0289V24.1323H101.691V24.0289C101.73 23.8211 101.757 23.6112 101.771 23.4003C101.771 23.1855 101.771 22.9309 101.771 22.6047C101.771 22.2785 101.771 21.9045 101.771 21.4271V8.60923C101.771 8.21937 101.771 7.87724 101.771 7.58285C101.769 7.31675 101.75 7.05104 101.715 6.7872C101.689 6.56632 101.643 6.34808 101.58 6.13477L102.447 6.17455Z" stroke="#1D1D1B" stroke-width="2.7" stroke-linecap="round" stroke-linejoin="round"/>
<path d="M140.335 1.5918V1.7191C140.287 1.98166 140.256 2.24423 140.232 2.51475C140.208 2.78527 140.232 3.11149 140.184 3.50135C140.136 3.89122 140.184 4.37657 140.184 4.98126V20.2259C140.232 21.9391 139.828 23.6348 139.014 25.143C138.244 26.4836 137.118 27.585 135.76 28.3256C134.283 29.1262 132.659 29.6188 130.986 29.7737V28.978C131.891 28.6649 132.696 28.1155 133.318 27.3867C134.04 26.5107 134.562 25.4868 134.845 24.3871C135.242 22.8928 135.427 21.35 135.394 19.8042V4.9733C135.394 4.36861 135.394 3.87531 135.394 3.4934C135.394 3.11149 135.394 2.77731 135.346 2.50679C135.299 2.23627 135.291 1.98166 135.243 1.71114V1.5918H140.335Z" stroke="#1D1D1B" stroke-width="2.7" stroke-linecap="round" stroke-linejoin="round"/>
<path d="M151.833 5.99207C152.286 5.90941 152.716 5.72735 153.09 5.45898L158.755 21.4277L159.296 22.8996C159.432 23.2656 159.535 23.5282 159.599 23.6953C159.662 23.8623 159.726 23.9658 159.758 24.0294V24.1329H155.191V23.9499C155.208 23.8231 155.208 23.6947 155.191 23.568C155.166 23.299 155.119 23.0328 155.048 22.7723C154.968 22.4222 154.825 21.9767 154.642 21.4038L150.091 8.33128H150.504L145.532 21.4277C145.309 22.0058 145.142 22.4753 145.03 22.836C144.943 23.0948 144.879 23.3611 144.839 23.6316C144.823 23.7504 144.823 23.8708 144.839 23.9896V24.1408H143.248V24.0374L143.415 23.7032C143.487 23.552 143.606 23.2895 143.757 22.9076C143.908 22.5257 144.107 22.0483 144.346 21.4356L150.274 6.18302C150.799 6.17676 151.322 6.11273 151.833 5.99207ZM155.016 18.6349V19.7091H145.786V18.6349H155.016Z" stroke="#1D1D1B" stroke-width="2.7" stroke-linecap="round" stroke-linejoin="round"/>
<path d="M177.771 12.0477H177.174C177.066 11.0209 176.711 10.0356 176.14 9.17539C175.623 8.39165 174.924 7.74467 174.103 7.2897C173.326 6.85991 172.453 6.63536 171.565 6.63727C170.469 6.63573 169.4 6.97189 168.502 7.6C167.469 8.34363 166.665 9.36034 166.178 10.5359C165.538 12.0854 165.234 13.7534 165.287 15.4292C165.232 16.9593 165.503 18.4838 166.083 19.9007C166.523 20.9822 167.266 21.9133 168.223 22.5821C169.074 23.1541 170.078 23.4564 171.104 23.4493C171.988 23.4482 172.859 23.2325 173.642 22.8208C174.499 22.3893 175.249 21.7723 175.838 21.0146C176.482 20.1916 176.941 19.2389 177.182 18.2219H177.779V21.5796C176.853 22.498 175.759 23.23 174.557 23.7358C173.314 24.2651 171.977 24.5358 170.626 24.5314C168.967 24.5384 167.336 24.1053 165.9 23.2765C164.463 22.4476 163.271 21.2526 162.447 19.8132C161.61 18.3624 161.176 16.7142 161.19 15.0393C161.178 13.379 161.605 11.745 162.426 10.302C163.247 8.85904 164.435 7.6581 165.868 6.82027C167.316 5.97498 168.966 5.5378 170.642 5.55519C172.009 5.5447 173.363 5.81553 174.62 6.35084C175.808 6.86136 176.888 7.59309 177.803 8.50704L177.771 12.0477Z" stroke="#1D1D1B" stroke-width="2.7" stroke-linecap="round" stroke-linejoin="round"/>
<path d="M185.974 6.17578V6.27922C185.925 6.48638 185.887 6.69626 185.863 6.90778C185.863 7.1226 185.815 7.37721 185.807 7.70343C185.799 8.02964 185.807 8.4036 185.807 8.88099V14.1641H185.385L191.026 8.88099C191.504 8.43542 191.933 8.02169 192.323 7.63977C192.713 7.25786 192.992 6.95552 193.175 6.73274C193.303 6.61128 193.401 6.46139 193.461 6.29513V6.17578H195.482V6.27922C195.299 6.41448 195.108 6.56565 194.909 6.74069C194.71 6.91573 194.487 7.11465 194.225 7.34538L193.381 8.14103L192.586 8.88099L190.613 10.7508V9.95511L195.538 20.8953C195.808 21.5554 196.138 22.1892 196.524 22.7889C196.79 23.1637 197.1 23.5056 197.447 23.8074V24.1177C196.654 24.3235 195.824 24.3363 195.025 24.155C194.226 23.9736 193.482 23.6034 192.856 23.0754C192.151 22.488 191.603 21.7329 191.265 20.8794L187.804 12.6046H188.448L185.449 15.3974L185.783 14.7051V21.3965C185.783 21.8739 185.783 22.2638 185.783 22.5741C185.783 22.8844 185.783 23.139 185.839 23.3698C185.863 23.5813 185.901 23.7911 185.95 23.9983V24.1017H181.805V23.9983C181.805 23.7914 181.86 23.5846 181.876 23.3698C181.892 23.1549 181.876 22.9003 181.876 22.5741C181.876 22.2479 181.876 21.8739 181.876 21.3965V8.86507C181.876 8.38769 181.876 7.99782 181.876 7.68751C181.876 7.37721 181.876 7.1226 181.876 6.89186C181.876 6.66113 181.837 6.47017 181.805 6.2633V6.17578H185.974Z" stroke="#1D1D1B" stroke-width="2.7" stroke-linecap="round" stroke-linejoin="round"/>
<path d="M21.7128 9.46899H21.0047C20.8678 8.22288 20.4339 7.02779 19.7396 5.98404C19.1118 5.03168 18.2628 4.24546 17.2651 3.69258C16.3226 3.17109 15.2631 2.89733 14.186 2.89693C12.8585 2.9 11.5631 3.30499 10.4703 4.05857C9.21785 4.9647 8.24254 6.20174 7.65368 7.63104C6.87387 9.51275 6.50234 11.5386 6.56364 13.5745C6.50691 15.4341 6.84874 17.2843 7.56615 19.0009C8.09655 20.3208 8.99734 21.4592 10.16 22.2789C11.1939 22.9758 12.414 23.3446 13.6608 23.3371C14.7249 23.3215 15.7698 23.0514 16.7082 22.5495C17.7323 22.0166 18.6283 21.2673 19.3338 20.3535C20.1136 19.3522 20.6723 18.197 20.9728 16.964H21.681V21.0377C20.5632 22.1525 19.239 23.0389 17.7823 23.6474C16.2741 24.2941 14.6493 24.6244 13.0084 24.6181C10.995 24.6295 9.01495 24.1048 7.27134 23.0981C5.52774 22.0914 4.08342 20.6388 3.08665 18.8895C2.08058 17.1295 1.56409 15.1322 1.59083 13.1051C1.57376 11.0751 2.10129 9.07761 3.11848 7.32073C4.11334 5.56975 5.55723 4.1158 7.30127 3.10882C9.04532 2.10183 11.0264 1.57825 13.0402 1.59206C14.6806 1.58281 16.3055 1.91049 17.8141 2.5548C19.2686 3.17099 20.5919 4.05949 21.7128 5.17248V9.46899Z" fill="white"/>
<path d="M33.6085 5.99207C34.0618 5.90941 34.4911 5.72735 34.8656 5.45898L40.5306 21.4277L41.0717 22.8996C41.2069 23.2656 41.3104 23.5282 41.374 23.6953C41.4377 23.8623 41.5013 23.9658 41.5331 24.0294V24.1329H36.9661V23.9499C36.9834 23.8231 36.9834 23.6947 36.9661 23.568C36.9418 23.299 36.8939 23.0328 36.8229 22.7723C36.7433 22.4222 36.6001 21.9767 36.4171 21.4038L31.866 8.33128H32.2798L27.3069 21.4277C27.0842 21.9952 26.9171 22.4647 26.8057 22.836C26.718 23.0948 26.6541 23.3611 26.6147 23.6316C26.5986 23.7504 26.5986 23.8708 26.6147 23.9896V24.1408H25.0234V24.0374L25.1905 23.7032C25.2621 23.552 25.3815 23.2895 25.5327 22.9076C25.6838 22.5257 25.8827 22.0483 26.1214 21.4356L32.0251 6.17507C32.5581 6.17318 33.0892 6.1118 33.6085 5.99207ZM36.7911 18.6349V19.7091H27.5854V18.6349H36.7911Z" fill="white"/>
<path d="M56.2528 7.68659C56.8868 8.17193 57.3949 8.80259 57.7342 9.52542C58.0734 10.2482 58.2339 11.042 58.2021 11.8399C58.2312 13.0171 57.8673 14.1705 57.1678 15.1179C56.4588 16.0433 55.5092 16.7561 54.4228 17.1787C53.2541 17.6461 52.0056 17.8813 50.7469 17.8709C50.5082 17.8709 50.2695 17.8709 50.0388 17.8709C49.808 17.8709 49.5694 17.8311 49.3307 17.7913V16.9957H49.6648C50.5185 17.0117 51.3622 16.809 52.1154 16.4069C52.8233 16.0082 53.3987 15.4107 53.7704 14.6883C54.1785 13.8602 54.3805 12.9458 54.3592 12.0229C54.3816 11.126 54.2162 10.2344 53.8738 9.40519C53.574 8.73586 53.0699 8.17876 52.4337 7.81389C51.7292 7.42264 50.9317 7.23014 50.1263 7.25694H47.8985L48.3122 6.85116V21.4274C48.3122 21.9048 48.3122 22.2947 48.3122 22.605C48.3122 22.9153 48.3122 23.1699 48.352 23.4007C48.3663 23.6115 48.3928 23.8214 48.4316 24.0292V24.1326H44.334V24.0292C44.334 23.8223 44.3976 23.6155 44.4135 23.4007C44.4295 23.1858 44.4135 22.9312 44.4135 22.605C44.4135 22.2788 44.4135 21.9048 44.4135 21.4274V8.86415C44.4135 8.38676 44.4135 7.99689 44.4135 7.68659C44.4135 7.37628 44.4135 7.12168 44.4135 6.89094C44.4135 6.6602 44.3658 6.46924 44.334 6.26238V6.17485H50.9777C52.856 6.07105 54.7145 6.60365 56.2528 7.68659Z" fill="white"/>
<path d="M72.936 6.17578V7.43291H72.8326C72.636 7.38245 72.4368 7.34261 72.2359 7.31356C72.037 7.31356 71.7983 7.27378 71.5118 7.26582H70.5014H68.552L68.9658 6.86004V21.4284C68.9658 21.8898 68.9658 22.2718 68.9658 22.5661C68.9658 22.8605 68.9658 23.1151 69.0135 23.3141C69.0612 23.513 69.0692 23.696 69.101 23.8869V24.0142V24.1177H64.9398V24.0142V23.8869C64.9398 23.696 65.0034 23.505 65.0353 23.3141C65.0671 23.1231 65.0353 22.8685 65.083 22.5661C65.1307 22.2638 65.083 21.8898 65.083 21.4284V6.84413L65.4888 7.24991H63.5792H62.5687C62.2929 7.24991 62.0542 7.26582 61.8527 7.29765C61.6491 7.32667 61.4473 7.36651 61.248 7.41699H61.1445V6.17578H72.936Z" fill="white"/>
<path d="M81.8719 5.99207C82.3245 5.90742 82.7535 5.72554 83.129 5.45898L88.794 21.4277L89.3351 22.8996C89.4703 23.2656 89.5738 23.5282 89.6374 23.6953C89.6846 23.8093 89.7377 23.9209 89.7965 24.0294V24.1329H85.2295V23.9499C85.2427 23.8229 85.2427 23.6949 85.2295 23.568C85.2052 23.299 85.1573 23.0328 85.0863 22.7723C84.9988 22.4222 84.8635 21.9767 84.6805 21.4038L80.1294 8.33128H80.5431L75.5862 21.4277C75.3635 22.0058 75.1964 22.4753 75.085 22.836C74.9973 23.0948 74.9334 23.3611 74.894 23.6316C74.8779 23.7504 74.8779 23.8708 74.894 23.9896V24.1408H73.3027V24.0374L73.4698 23.7032C73.5414 23.552 73.6608 23.2895 73.8119 22.9076C73.9631 22.5257 74.162 22.0483 74.4007 21.4356L80.2885 6.17507C80.8215 6.17318 81.3525 6.1118 81.8719 5.99207ZM85.0545 18.6349V19.7091H75.8488V18.6349H85.0545Z" fill="white"/>
<path d="M96.9023 6.17578V6.27922C96.9023 6.48608 96.8466 6.69295 96.8307 6.90778C96.8148 7.1226 96.8307 7.37721 96.8307 7.70343C96.8307 8.02964 96.8307 8.4036 96.8307 8.88099V21.4284C96.8307 21.9058 96.8307 22.2956 96.8307 22.6059C96.8307 22.9162 96.8307 23.1708 96.8307 23.4016C96.8307 23.6323 96.8307 23.8233 96.9023 24.0301V24.1336H92.8047V24.0301C92.8047 23.8233 92.8604 23.6164 92.8843 23.4016C92.9081 23.1868 92.8843 22.9321 92.8843 22.6059C92.8843 22.2797 92.8843 21.9058 92.8843 21.4284V8.86507C92.8843 8.38768 92.8843 7.99782 92.8843 7.68751C92.8843 7.37721 92.8843 7.1226 92.8843 6.89186C92.8843 6.66113 92.8365 6.47017 92.8047 6.2633V6.17578H96.9023Z" fill="white"/>
<path d="M102.447 6.17455L116.387 19.0959H115.727V8.86384C115.727 8.38645 115.727 7.99658 115.727 7.68628C115.727 7.37598 115.727 7.12137 115.679 6.89063C115.651 6.67896 115.612 6.46908 115.56 6.26207V6.17455H116.96V6.27798C116.96 6.48485 116.896 6.69172 116.88 6.90654C116.864 7.12137 116.88 7.37598 116.88 7.70219C116.88 8.02841 116.88 8.40236 116.88 8.87975V21.6817C116.88 22.0716 116.88 22.4137 116.88 22.7081C116.88 23.0025 116.88 23.2492 116.928 23.464C116.954 23.6857 117.002 23.9043 117.071 24.1164H116.276L102.24 11.2269H102.909V21.4271C102.909 21.9045 102.909 22.2944 102.909 22.6047C102.909 22.915 102.909 23.1696 102.965 23.4003C102.989 23.6119 103.027 23.8217 103.076 24.0289V24.1323H101.691V24.0289C101.73 23.8211 101.757 23.6112 101.771 23.4003C101.771 23.1855 101.771 22.9309 101.771 22.6047C101.771 22.2785 101.771 21.9045 101.771 21.4271V8.60923C101.771 8.21937 101.771 7.87724 101.771 7.58285C101.769 7.31675 101.75 7.05104 101.715 6.7872C101.689 6.56632 101.643 6.34808 101.58 6.13477L102.447 6.17455Z" fill="white"/>
<path d="M140.335 1.5918V1.7191C140.287 1.98166 140.256 2.24423 140.232 2.51475C140.208 2.78527 140.232 3.11149 140.184 3.50135C140.136 3.89122 140.184 4.37657 140.184 4.98126V20.2259C140.232 21.9391 139.828 23.6348 139.014 25.143C138.244 26.4836 137.118 27.585 135.76 28.3256C134.283 29.1262 132.659 29.6188 130.986 29.7737V28.978C131.891 28.6649 132.696 28.1155 133.318 27.3867C134.04 26.5107 134.562 25.4868 134.845 24.3871C135.242 22.8928 135.427 21.35 135.394 19.8042V4.9733C135.394 4.36861 135.394 3.87531 135.394 3.4934C135.394 3.11149 135.394 2.77731 135.346 2.50679C135.299 2.23627 135.291 1.98166 135.243 1.71114V1.5918H140.335Z" fill="white"/>
<path d="M151.833 5.99207C152.286 5.90941 152.716 5.72735 153.09 5.45898L158.755 21.4277L159.296 22.8996C159.432 23.2656 159.535 23.5282 159.599 23.6953C159.662 23.8623 159.726 23.9658 159.758 24.0294V24.1329H155.191V23.9499C155.208 23.8231 155.208 23.6947 155.191 23.568C155.166 23.299 155.119 23.0328 155.048 22.7723C154.968 22.4222 154.825 21.9767 154.642 21.4038L150.091 8.33128H150.504L145.532 21.4277C145.309 22.0058 145.142 22.4753 145.03 22.836C144.943 23.0948 144.879 23.3611 144.839 23.6316C144.823 23.7504 144.823 23.8708 144.839 23.9896V24.1408H143.248V24.0374L143.415 23.7032C143.487 23.552 143.606 23.2895 143.757 22.9076C143.908 22.5257 144.107 22.0483 144.346 21.4356L150.274 6.18302C150.799 6.17676 151.322 6.11273 151.833 5.99207ZM155.016 18.6349V19.7091H145.786V18.6349H155.016Z" fill="white"/>
<path d="M177.771 12.0477H177.174C177.066 11.0209 176.711 10.0356 176.14 9.17539C175.623 8.39165 174.924 7.74467 174.103 7.2897C173.326 6.85991 172.453 6.63536 171.565 6.63727C170.469 6.63573 169.4 6.97189 168.502 7.6C167.469 8.34363 166.665 9.36034 166.178 10.5359C165.538 12.0854 165.234 13.7534 165.287 15.4292C165.232 16.9593 165.503 18.4838 166.083 19.9007C166.523 20.9822 167.266 21.9133 168.223 22.5821C169.074 23.1541 170.078 23.4564 171.104 23.4493C171.988 23.4482 172.859 23.2325 173.642 22.8208C174.499 22.3893 175.249 21.7723 175.838 21.0146C176.482 20.1916 176.941 19.2389 177.182 18.2219H177.779V21.5796C176.853 22.498 175.759 23.23 174.557 23.7358C173.314 24.2651 171.977 24.5358 170.626 24.5314C168.967 24.5384 167.336 24.1053 165.9 23.2765C164.463 22.4476 163.271 21.2526 162.447 19.8132C161.61 18.3624 161.176 16.7142 161.19 15.0393C161.178 13.379 161.605 11.745 162.426 10.302C163.247 8.85904 164.435 7.6581 165.868 6.82027C167.316 5.97498 168.966 5.5378 170.642 5.55519C172.009 5.5447 173.363 5.81553 174.62 6.35084C175.808 6.86136 176.888 7.59309 177.803 8.50704L177.771 12.0477Z" fill="white"/>
<path d="M185.974 6.17578V6.27922C185.925 6.48638 185.887 6.69626 185.863 6.90778C185.863 7.1226 185.815 7.37721 185.807 7.70343C185.799 8.02964 185.807 8.4036 185.807 8.88099V14.1641H185.385L191.026 8.88099C191.504 8.43542 191.933 8.02169 192.323 7.63977C192.713 7.25786 192.992 6.95552 193.175 6.73274C193.303 6.61128 193.401 6.46139 193.461 6.29513V6.17578H195.482V6.27922C195.299 6.41448 195.108 6.56565 194.909 6.74069C194.71 6.91573 194.487 7.11465 194.225 7.34538L193.381 8.14103L192.586 8.88099L190.613 10.7508V9.95511L195.538 20.8953C195.808 21.5554 196.138 22.1892 196.524 22.7889C196.79 23.1637 197.1 23.5056 197.447 23.8074V24.1177C196.654 24.3235 195.824 24.3363 195.025 24.155C194.226 23.9736 193.482 23.6034 192.856 23.0754C192.151 22.488 191.603 21.7329 191.265 20.8794L187.804 12.6046H188.448L185.449 15.3974L185.783 14.7051V21.3965C185.783 21.8739 185.783 22.2638 185.783 22.5741C185.783 22.8844 185.783 23.139 185.839 23.3698C185.863 23.5813 185.901 23.7911 185.95 23.9983V24.1017H181.805V23.9983C181.805 23.7914 181.86 23.5846 181.876 23.3698C181.892 23.1549 181.876 22.9003 181.876 22.5741C181.876 22.2479 181.876 21.8739 181.876 21.3965V8.86507C181.876 8.38769 181.876 7.99782 181.876 7.68751C181.876 7.37721 181.876 7.1226 181.876 6.89186C181.876 6.66113 181.837 6.47017 181.805 6.2633V6.17578H185.974Z" fill="white"/>
</svg>
