<svg width="163" height="40" viewBox="0 0 163 40" fill="none" xmlns="http://www.w3.org/2000/svg">
<g filter="url(#filter0_d_4695_10131)">
<path d="M76.4738 7.58884C76.8376 6.21492 78.1302 4.80677 79.6625 5.06357C80.8438 5.26046 81.1434 6.29624 80.8609 7.36199C80.4971 8.73591 79.2045 10.1441 77.6679 9.88726C76.508 9.69037 76.2084 8.65458 76.4738 7.58884ZM90.5982 27.5256C90.5217 28.8572 90.8874 30.1768 91.6382 31.2792C91.4071 31.7073 91.2102 31.8442 90.9234 31.8442C90.6367 31.8442 89.4768 30.8641 89.1258 30.3333C87.8846 28.4287 87.2768 27.4229 87.5764 24.033C87.9573 19.6887 90.5211 15.5413 90.6581 14.2316C90.6923 13.8892 90.5853 13.7308 90.3328 13.7308C87.1741 13.7308 83.322 23.5408 82.5858 26.2159C81.8753 26.4342 80.8309 26.8408 80.0177 26.8408C79.2045 26.8408 78.7337 26.4984 78.8621 25.3128C78.943 24.6348 79.0863 23.9657 79.2901 23.314C77.6123 25.1159 75.087 27.0591 73.2295 27.0591C71.6972 27.0591 70.6956 26.156 70.8412 24.782C70.9237 24.1728 71.051 23.5706 71.2221 22.9801C69.1206 25.3213 66.7151 27.0591 65.0801 27.0591C63.5479 27.0591 63.1712 25.591 63.3681 23.635L63.4109 23.207C61.9257 25.454 60.3164 27.0591 58.5359 27.0591C56.1861 27.0591 55.3343 25.4883 55.4413 23.361V23.3311C53.7807 25.0902 51.3281 27.089 49.4107 27.089C47.8784 27.089 46.8768 26.1859 47.0224 24.812C47.0951 24.0929 48.8114 20.3008 50.5278 16.3716C48.6788 17.4545 46.1535 18.9397 45.6142 19.7443C45.5229 19.8928 45.4228 20.0357 45.3146 20.1724C43.5169 23.5408 40.5209 26.6524 37.4649 26.6524C36.5575 26.6524 35.8812 26.2244 35.6544 25.0945C34.3704 28.433 33.2104 32.3707 33.2575 34.7119C32.3145 35.0204 31.3306 35.1864 30.3385 35.2041C29.5253 35.2041 28.9047 34.8317 29.0545 33.5819C29.1443 32.7259 30.5953 27.684 32.2217 23.1428C29.9105 25.2828 27.3595 27.0591 25.6475 27.0591C24.1109 27.0591 23.7343 25.591 23.9355 23.635L23.9825 23.207C22.4931 25.454 20.8837 27.0591 19.1032 27.0591C16.7534 27.0591 15.9017 25.4883 16.0087 23.361C13.8387 25.3941 11.1936 27.3201 8.56986 27.3201C4.01582 27.2773 2.39794 23.6264 2.85591 19.1323C3.62633 11.8903 10.4189 2.48695 18.825 2.76087C22.2491 2.87216 23.8199 5.35034 23.1522 6.96394C22.3861 8.81295 20.7596 9.63901 19.5269 9.47208C18.2943 9.30516 17.6223 7.92697 18.2172 6.66433C18.7052 5.61571 19.2616 5.02505 20.8623 4.57564C20.2918 4.11945 19.5811 3.87449 18.8507 3.88226C14.1426 3.72818 8.48425 13.6366 7.79944 20.1467C7.48699 23.1428 8.16753 25.2828 10.329 25.2828C12.2936 25.2828 14.5449 23.5708 16.2056 21.7945C16.8916 19.0729 18.2702 16.5751 20.2075 14.544C20.2075 14.544 20.8024 13.9405 20.8581 13.8892C21.2917 13.4917 21.746 13.1174 22.2191 12.7678C23.2635 12.0102 25.3693 10.7433 27.9887 11.0557C28.7179 11.1055 29.4203 11.351 30.0218 11.7662C30.8393 12.3783 30.7836 13.1359 30.591 13.4783C30.3984 13.8207 29.6408 13.6923 29.6408 13.6923C29.613 13.4765 29.538 13.2696 29.4211 13.0861C29.3042 12.9027 29.1483 12.7472 28.9646 12.6308C28.3739 12.2028 27.2782 11.9032 25.3265 13.23C24.5096 13.8192 23.8124 14.5586 23.272 15.4086C21.8296 17.7199 20.597 21.2895 20.3787 23.3653C20.276 24.3626 20.3787 25.0174 20.8623 25.0174C21.7184 25.0174 23.3405 23.4894 24.3677 21.1653C24.4148 20.9856 25.2238 18.7 25.6989 17.6385C26.5549 15.6996 27.1498 15.3358 28.5066 15.0705C29.0034 14.9679 29.5069 14.9007 30.0132 14.8693C30.4969 14.8393 30.5867 15.1646 30.3899 15.6183L29.8206 16.9666C28.8276 19.5346 27.8988 22.2054 27.3381 24.0373C27.2999 24.1591 27.2996 24.2896 27.3374 24.4116C27.3751 24.5336 27.449 24.6412 27.5493 24.7201C27.6496 24.7991 27.7716 24.8456 27.899 24.8536C28.0264 24.8616 28.1532 24.8307 28.2626 24.7649C29.959 23.7052 31.5249 22.4496 32.928 21.0241C34.1649 17.2704 35.3377 15.1518 35.7828 13.8892C35.663 13.4397 34.8112 13.4997 33.9894 14.5611C33.8923 14.5099 33.8063 14.4399 33.7365 14.3552C33.6666 14.2704 33.6142 14.1727 33.5824 14.0676C33.5505 13.9625 33.5399 13.8522 33.551 13.7429C33.562 13.6337 33.5947 13.5277 33.647 13.4312C34.135 12.6693 35.7871 11.6678 37.4991 11.7662C38.7832 11.839 39.8446 12.3868 39.7162 13.6067C39.6518 14.0917 39.5502 14.5711 39.4123 15.0405C41.5524 12.3868 43.4955 11.6164 44.9037 11.6164C46.6885 11.6164 47.2877 13.0545 47.0823 15.0405C47.0035 15.7301 46.8602 16.4107 46.6543 17.0736C47.964 16.1234 50.0313 15.3102 51.2254 14.8436C51.5892 13.9876 52.0429 12.9304 52.4067 12.053C52.4294 11.9907 52.4374 11.924 52.4299 11.8581C52.4224 11.7922 52.3997 11.729 52.3636 11.6734C52.3275 11.6177 52.2789 11.5713 52.2218 11.5376C52.1647 11.504 52.1005 11.4841 52.0344 11.4795H49.9371C49.7488 11.4795 49.6717 11.2612 49.706 11.0129C49.7357 10.8384 49.8216 10.6783 49.9506 10.557C50.0796 10.4357 50.2447 10.3599 50.4208 10.3409C52.1756 10.0884 52.6678 10.4094 53.9947 9.44212C55.2429 8.47957 56.362 7.36041 57.3246 6.1122C57.5985 5.73555 57.8639 5.17485 58.3047 5.17485C58.4931 5.17485 59.058 5.26474 58.8783 5.70131C58.6386 6.35616 58.2619 7.32775 57.8425 8.41918C57.423 9.51061 57.025 10.3281 57.5728 10.3281H59.1008C59.4475 10.3281 59.5759 10.5122 59.5288 10.7304C59.464 10.9611 59.321 11.1621 59.1241 11.2987C58.9273 11.4354 58.689 11.4993 58.4503 11.4795H57.1662C56.998 11.4811 56.8339 11.5324 56.6946 11.6268C56.5553 11.7212 56.4469 11.8545 56.383 12.0102C54.7308 15.9736 52.2227 21.2809 51.2468 23.8747C51.1981 23.999 51.19 24.1355 51.2235 24.2648C51.2571 24.394 51.3306 24.5093 51.4336 24.5943C51.5366 24.6793 51.6638 24.7295 51.7971 24.7379C51.9303 24.7462 52.0628 24.7122 52.1756 24.6408C53.4815 23.7187 54.6778 22.6503 55.7409 21.4564C56.4627 18.8788 57.8026 16.5163 59.6444 14.574L60.2993 13.9191C60.7329 13.5217 61.1873 13.1474 61.6603 12.7977C63.295 11.5471 65.343 10.9629 67.3914 11.1627C68.1203 11.2142 68.8222 11.4595 69.4245 11.8732C70.2377 12.4853 70.1606 13.26 70.0322 13.5039C69.8525 13.8421 68.9622 13.6966 68.9622 13.6966C68.937 13.4755 68.8624 13.263 68.7438 13.0748C68.6253 12.8866 68.4659 12.7276 68.2774 12.6094C67.6867 12.1814 66.7151 11.9032 64.7634 13.23C63.9589 13.8225 63.2734 14.5617 62.7432 15.4086C61.3008 17.7199 60.0681 21.2895 59.8498 23.3653C59.7471 24.3626 59.8498 25.0174 60.3335 25.0174C61.1895 25.0174 62.8117 23.4894 63.8389 21.1653C63.886 20.9856 64.6949 18.7 65.17 17.6385C66.026 15.6996 66.621 15.3358 67.9735 15.0705C68.5101 14.9628 69.0536 14.8927 69.5999 14.8607C70.0023 14.8607 70.0708 15.1304 69.8953 15.537C69.7198 15.9436 69.5186 16.4144 69.2832 16.9708C68.333 19.4405 67.4299 22.0128 66.8692 23.819C66.8267 23.9499 66.828 24.091 66.8728 24.2211C66.9177 24.3512 67.0037 24.4631 67.1178 24.54C67.2319 24.6169 67.3679 24.6545 67.5053 24.6472C67.6427 24.6399 67.774 24.5881 67.8793 24.4996C69.3926 23.2911 70.7871 21.941 72.0439 20.4677C72.7159 18.593 73.6147 16.393 74.2738 14.8308C74.5051 14.3054 74.6496 13.746 74.7018 13.1744C74.6581 12.8085 74.5615 12.451 74.4151 12.1129C74.6146 12.0074 74.83 11.9351 75.0528 11.8989C75.5755 11.8703 76.0997 11.9136 76.6108 12.0273C77.6037 12.19 78.845 12.7892 78.3827 14.8436C77.9547 16.637 76.0372 21.0113 75.0442 23.8832C75.0008 24.0094 74.9983 24.146 75.0371 24.2736C75.0759 24.4013 75.1539 24.5134 75.2602 24.5941C75.3665 24.6747 75.4955 24.7198 75.6289 24.7228C75.7623 24.7258 75.8932 24.6866 76.003 24.6108C77.5415 23.539 78.9455 22.2859 80.1846 20.8786C81.2804 18.0965 82.6714 14.8436 83.2663 12.6693C83.6644 11.2055 83.3947 9.30944 81.9481 8.5647C82.0123 8.25225 82.1535 8.02969 82.65 8.05965C84.3877 8.16237 86.8231 10.9016 86.3865 14.0818C86.3354 14.8793 86.1681 15.6652 85.89 16.4144C88.2141 13.046 90.7266 11.4837 92.6055 11.4837C94.3176 11.4837 95.058 12.2627 94.9339 13.4825C94.5316 17.1206 90.9363 23.2754 90.5982 27.5256ZM35.8684 13.795C35.8128 13.9405 35.8128 13.9148 35.8684 13.795ZM42.5924 13.8892C41.7364 13.5082 39.3096 16.5685 37.91 19.2051C37.1559 20.6116 36.5808 22.107 36.198 23.6564C36.2085 24.1187 36.3398 24.5702 36.5789 24.9661C36.6378 25.1006 36.7331 25.216 36.8541 25.2992C36.9752 25.3824 37.117 25.4301 37.2637 25.4369C39.515 25.4369 42.6053 18.0708 42.9177 15.1047C43.0033 14.4413 42.8621 14.0047 42.5924 13.8892ZM158.301 32.529C158.267 32.7174 158.117 32.8629 157.774 32.8415C157.608 32.8359 157.443 32.8041 157.287 32.7473C153.208 31.5189 152.36 29.1392 152.026 26.4256C151.628 23.2498 152.309 19.8128 149.818 18.3191C148.51 20.8304 147.454 23.4657 146.668 26.1859C145.784 26.5004 144.857 26.6752 143.92 26.7038C143.107 26.7038 142.486 26.3314 142.636 25.1116C142.711 24.6047 142.828 24.1051 142.987 23.6178C142.112 24.484 141.119 25.2218 140.038 25.8093C138.724 26.5413 137.259 26.9588 135.758 27.0291C132.856 27.0291 131.64 25.1886 131.619 22.856C130.236 24.7435 128.477 26.9093 125.819 27.0591C124.283 27.1447 123.906 25.591 124.107 23.635L124.154 23.207C122.665 25.454 121.055 27.0591 119.275 27.0591C116.925 27.0591 116.073 25.4883 116.18 23.361C116.207 22.8582 116.276 22.3586 116.386 21.8673C116.718 20.3381 117.31 18.8772 118.136 17.5487C117.204 17.3715 116.256 17.2869 115.307 17.2961C112.427 25.1501 108.318 34.8531 100.541 35.2041C97.7459 35.3325 94.8098 33.064 95.2078 29.2676C95.9269 22.4194 102.737 16.9751 111.044 16.3545C112.054 13.5767 113.287 10.8289 114.652 9.27948C116.026 7.89111 117.562 6.67387 119.228 5.65423C113.488 6.73281 106.982 5.10209 106.435 8.76587C106.178 10.4779 107.53 12.19 109.093 12.9304C108.942 13.2423 108.709 13.5076 108.42 13.6982C108.131 13.8888 107.795 13.9977 107.449 14.0133C104.992 14.0133 104.624 11.3981 104.919 9.41644C105.579 5.04217 109.469 2.99628 113.788 2.99628C115.898 2.99628 121.946 4.22895 124.398 3.12468C125.057 2.82936 125.049 3.52273 125.006 3.80522C124.882 4.66124 123.722 4.93089 122.583 5.44022C120.234 6.44177 119.241 8.4363 118.731 9.3822C117.569 11.612 116.568 13.922 115.735 16.2946C116.703 16.3417 117.66 16.5306 118.573 16.8553C119.106 16.0353 119.714 15.2659 120.388 14.5569C120.388 14.5569 120.983 13.9534 121.038 13.902C121.472 13.5045 121.926 13.1302 122.399 12.7806C124.034 11.53 126.082 10.9457 128.13 11.1456C128.859 11.1971 129.561 11.4424 130.163 11.8561C130.977 12.4682 130.9 13.2429 130.771 13.4868C130.591 13.825 129.723 13.6794 129.723 13.6794C129.698 13.4588 129.624 13.2465 129.506 13.0584C129.388 12.8702 129.23 12.7109 129.042 12.5923C128.451 12.1643 127.454 11.8861 125.502 13.2129C124.676 13.8051 123.972 14.5505 123.427 15.4086C121.984 17.7199 120.752 21.2895 120.533 23.3653C120.431 24.3626 120.533 25.0174 121.017 25.0174C121.873 25.0174 123.495 23.4894 124.522 21.1653C124.569 20.9856 125.378 18.7 125.853 17.6385C126.709 15.6996 127.304 15.3358 128.661 15.0705C129.292 14.9358 129.934 14.8641 130.579 14.8565C130.776 14.8565 130.818 14.9849 130.737 15.1775C130.579 15.5413 130.309 16.2047 129.967 16.9708C129.038 19.3848 128.156 21.9015 127.591 23.7163C127.548 23.8514 127.551 23.997 127.6 24.1302C127.649 24.2634 127.74 24.3765 127.861 24.4516C127.981 24.5268 128.123 24.5596 128.264 24.5451C128.405 24.5305 128.537 24.4693 128.64 24.3711C129.811 23.2296 130.888 21.9943 131.858 20.6774C132.997 16.4315 137.063 11.595 141.758 11.595C143.419 11.595 145.358 12.8791 144.545 14.6895C143.731 16.5 142.465 17.1078 141.258 16.9452C140.239 16.8082 139.631 16.1448 139.918 14.9463C140.205 13.7479 140.979 13.0631 141.861 12.404C141.702 12.3544 141.535 12.3341 141.369 12.344C139.331 12.344 136.528 18.1821 136.13 21.9871C135.937 23.8276 136.297 25.1715 137.581 25.1715C139.143 25.1715 142.319 22.8603 143.753 21.2766C145.679 16.0463 148.829 9.81877 149.082 7.40051C149.347 4.87097 148.555 2.76943 145.931 1.83637C145.867 1.82152 145.807 1.79283 145.755 1.75229C145.703 1.71176 145.66 1.66037 145.63 1.6017C145.6 1.54302 145.583 1.47847 145.58 1.41256C145.578 1.34664 145.589 1.28094 145.615 1.22003C145.651 1.09097 145.73 0.978111 145.839 0.900238C145.948 0.822365 146.08 0.784175 146.214 0.792023C149.638 0.792023 153.751 4.02779 152.861 7.77288C152.352 9.91294 151.778 11.2398 150.139 15.5156C151.671 13.1444 153.777 10.9016 156.426 10.8332C157.899 10.7989 159.799 12.1172 159.067 13.7522C158.365 15.3059 157.184 15.9393 155.968 15.858C154.937 15.7895 154.183 15.1946 154.402 14.146C154.62 13.0973 155.348 12.4339 156.229 11.7833C154.475 11.7833 152.266 14.0604 150.665 16.744C150.806 16.7161 150.95 16.706 151.093 16.714C155.896 16.9623 155.373 22.2782 155.754 26.6096C155.99 29.2034 156.871 30.924 158.241 32.1995C158.339 32.2851 158.318 32.4392 158.301 32.529ZM110.655 17.4117C102.856 18.0323 97.8144 24.3027 97.3222 29.0793C97.0312 31.887 98.8973 34.1769 101.213 34.1769C105.878 34.1769 109.431 20.9043 110.655 17.4117Z" fill="white"/>
<path d="M146.214 0.788026C149.638 0.788026 153.751 4.02379 152.861 7.76888C152.351 9.90894 151.778 11.2358 150.138 15.5116C151.671 13.1404 153.776 10.8976 156.426 10.8292H156.481C157.945 10.8292 159.79 12.1474 159.05 13.7482C158.386 15.2163 157.295 15.8626 156.156 15.8626H155.951C154.919 15.7941 154.166 15.1992 154.384 14.1505C154.603 13.1019 155.33 12.4385 156.212 11.7879C154.457 11.7879 152.248 14.0649 150.648 16.7486C150.758 16.7272 150.869 16.7157 150.982 16.7143H151.089C155.891 16.9626 155.369 22.2785 155.75 26.6099C155.985 29.2037 156.867 30.9243 158.236 32.1998C158.318 32.2725 158.296 32.4266 158.279 32.5165C158.249 32.692 158.116 32.8289 157.821 32.8289H157.795C157.629 32.8233 157.464 32.7916 157.308 32.7348C153.229 31.5064 152.381 29.1266 152.047 26.413C151.649 23.2372 152.33 19.8003 149.839 18.3065C148.522 20.8212 147.46 23.4608 146.667 26.1862C145.784 26.5007 144.857 26.6754 143.919 26.7041C143.106 26.7041 142.486 26.3317 142.635 25.1119C142.71 24.605 142.828 24.1053 142.986 23.6181C142.112 24.4843 141.119 25.2221 140.037 25.8095C138.724 26.5416 137.259 26.9591 135.757 27.0294C132.851 27.0294 131.64 25.1889 131.618 22.8563C130.236 24.7438 128.477 26.9095 125.819 27.0593H125.695C124.261 27.0593 123.91 25.5356 124.111 23.6352L124.158 23.2072C122.669 25.4543 121.059 27.0593 119.279 27.0593C116.929 27.0593 116.077 25.4885 116.184 23.3613C116.211 22.8585 116.28 22.3589 116.39 21.8676C116.72 20.3386 117.311 18.8778 118.136 17.5489C117.204 17.3717 116.256 17.2872 115.307 17.2964C112.426 25.1504 108.317 34.8534 100.54 35.2044H100.322C97.5957 35.2044 94.8222 32.9359 95.2074 29.2593C95.9265 22.4111 102.736 16.9668 111.044 16.3462C112.054 13.5684 113.287 10.8206 114.652 9.2712C116.025 7.88284 117.562 6.66559 119.227 5.64595C113.488 6.72454 106.982 5.09382 106.434 8.75759C106.177 10.4696 107.53 12.1817 109.092 12.9221C108.941 13.234 108.709 13.4993 108.419 13.6899C108.13 13.8806 107.795 13.9894 107.449 14.005C104.992 14.005 104.624 11.3899 104.919 9.40817C105.578 5.04673 109.464 2.99656 113.775 2.99656C115.23 2.99656 118.568 3.58294 121.303 3.58294C122.358 3.64375 123.414 3.49388 124.411 3.14209C124.498 3.09783 124.595 3.07301 124.693 3.06932C125.065 3.06932 125.053 3.5915 125.018 3.82262C124.894 4.67865 123.734 4.94829 122.596 5.45763C120.246 6.45917 119.253 8.4537 118.744 9.39961C117.582 11.6294 116.58 13.9394 115.748 16.312C116.716 16.3591 117.672 16.548 118.585 16.8727C119.119 16.0527 119.726 15.2833 120.4 14.5743C120.4 14.5743 120.995 13.9708 121.051 13.9194C121.484 13.5219 121.939 13.1476 122.412 12.798C123.805 11.755 125.487 11.1716 127.227 11.1288C127.52 11.1293 127.813 11.1465 128.104 11.1801C128.833 11.2316 129.535 11.4769 130.137 11.8906C130.951 12.5027 130.874 13.2774 130.745 13.5214C130.647 13.7011 130.347 13.7439 130.095 13.7439C129.961 13.7435 129.828 13.7335 129.697 13.714C129.672 13.4933 129.598 13.2811 129.48 13.0929C129.362 12.9047 129.204 12.7454 129.016 12.6268C128.701 12.392 128.318 12.2672 127.925 12.2716C127.338 12.2716 126.555 12.5155 125.476 13.2474C124.663 13.832 123.967 14.5654 123.426 15.4089C121.984 17.7201 120.751 21.2897 120.533 23.3656C120.43 24.3629 120.533 25.0177 121.017 25.0177C121.873 25.0177 123.495 23.4897 124.522 21.1656C124.569 20.9859 125.378 18.7003 125.853 17.6388C126.709 15.6999 127.304 15.3361 128.661 15.0707C129.266 14.9422 129.882 14.8706 130.501 14.8567H130.578C130.775 14.8567 130.818 14.9851 130.737 15.1778C130.578 15.5416 130.309 16.205 129.966 16.9711C129.037 19.3851 128.156 21.9018 127.591 23.7166C127.554 23.8136 127.542 23.9181 127.556 24.0208C127.569 24.1236 127.607 24.2215 127.667 24.306C127.727 24.3905 127.807 24.459 127.9 24.5055C127.992 24.552 128.095 24.575 128.199 24.5726C128.358 24.5673 128.511 24.5033 128.627 24.3928C129.798 23.2513 130.875 22.016 131.845 20.6991C132.984 16.4532 137.05 11.6167 141.745 11.6167C143.406 11.6167 145.345 12.9007 144.531 14.7112C143.808 16.3334 142.704 16.9925 141.612 16.9925C141.489 16.9923 141.366 16.9838 141.244 16.9668C140.226 16.8299 139.618 16.1665 139.905 14.968C140.191 13.7696 140.966 13.0848 141.848 12.4256C141.689 12.3761 141.522 12.3558 141.356 12.3657C139.318 12.3657 136.515 18.2038 136.117 22.0088C135.924 23.8493 136.284 25.1932 137.568 25.1932C139.13 25.1932 142.306 22.8819 143.74 21.2983C145.666 16.068 148.816 9.84046 149.068 7.4222C149.334 4.89265 148.542 2.79112 145.918 1.85805C145.854 1.8432 145.794 1.81451 145.742 1.77398C145.69 1.73345 145.647 1.68205 145.617 1.62338C145.587 1.5647 145.57 1.50016 145.567 1.43424C145.564 1.36833 145.576 1.30262 145.601 1.24172C145.637 1.11265 145.716 0.999795 145.825 0.921922C145.935 0.844048 146.067 0.805858 146.201 0.813706M110.654 17.412C102.856 18.0326 97.814 24.3029 97.3218 29.0796C97.0308 31.8873 98.8969 34.1772 101.212 34.1772C105.878 34.1772 109.443 20.9088 110.654 17.412ZM18.4694 2.75688H18.8246C22.2487 2.86816 23.8195 5.34634 23.1518 6.95994C22.4499 8.65059 21.0117 9.48949 19.8476 9.48949C19.7402 9.48907 19.633 9.48192 19.5265 9.46809C18.2939 9.29688 17.6219 7.92297 18.2168 6.66034C18.7048 5.61171 19.2612 5.02105 20.8619 4.57164C20.2914 4.11545 19.5807 3.8705 18.8503 3.87827H18.7433C14.0737 3.87827 8.47103 13.6883 7.79905 20.1427C7.4866 23.1388 8.16714 25.2788 10.3286 25.2788C12.2932 25.2788 14.5445 23.5668 16.2052 21.7905C16.8912 19.0689 18.2698 16.5711 20.2071 14.54C20.2071 14.54 20.802 13.9365 20.8577 13.8852C21.2913 13.4877 21.7457 13.1134 22.2187 12.7638C23.6388 11.6784 25.363 11.0648 27.1494 11.0089C27.4355 11.0085 27.7214 11.0257 28.0054 11.0603C28.7347 11.1101 29.437 11.3555 30.0385 11.7708C30.856 12.3828 30.8004 13.1404 30.6078 13.4828C30.4922 13.6754 30.1797 13.7182 29.9486 13.7182C29.8512 13.7183 29.7539 13.7112 29.6576 13.6968C29.6284 13.4789 29.551 13.2701 29.4311 13.0858C29.3111 12.9014 29.1516 12.7461 28.9642 12.6311C28.6302 12.3879 28.226 12.2602 27.8128 12.2673C27.2008 12.2673 26.3918 12.507 25.3261 13.2303C24.5092 13.8195 23.812 14.5589 23.2716 15.4089C21.8292 17.7201 20.5966 21.2897 20.3783 23.3656C20.2756 24.3629 20.3783 25.0177 20.8619 25.0177C21.718 25.0177 23.3401 23.4897 24.3674 21.1656C24.4144 20.9859 25.2234 18.7003 25.6985 17.6388C26.5545 15.6999 27.1494 15.3361 28.5062 15.0707C29.003 14.9682 29.5065 14.901 30.0128 14.8696H30.0685C30.4965 14.8696 30.5778 15.1863 30.3895 15.6229L29.8202 16.9668C28.8272 19.5349 27.8984 22.2057 27.3377 24.0376C27.3082 24.1317 27.3012 24.2315 27.3174 24.3288C27.3335 24.4261 27.3723 24.5183 27.4306 24.5979C27.4889 24.6774 27.5652 24.7422 27.6531 24.7869C27.7411 24.8315 27.8383 24.8549 27.937 24.8551C28.0511 24.8524 28.1629 24.8215 28.2623 24.7652C29.9586 23.7055 31.5245 22.4499 32.9276 21.0244C34.1645 17.2707 35.3373 15.1521 35.7824 13.8894C35.7562 13.8056 35.7019 13.7334 35.6285 13.685C35.5552 13.6367 35.4674 13.6151 35.3801 13.6241C35.0291 13.6241 34.5241 13.8937 33.989 14.5614C33.8919 14.5102 33.806 14.4401 33.7361 14.3554C33.6662 14.2707 33.6138 14.173 33.582 14.0679C33.5502 13.9628 33.5395 13.8525 33.5506 13.7432C33.5617 13.634 33.5943 13.528 33.6466 13.4315C34.1089 12.7039 35.654 11.7579 37.2633 11.7579H37.4944C38.7785 11.8307 39.8399 12.3786 39.7115 13.5984C39.6472 14.0834 39.5456 14.5628 39.4077 15.0322C41.5477 12.3786 43.4909 11.6081 44.899 11.6081C46.6838 11.6081 47.2831 13.0463 47.0776 15.0322C46.9988 15.7218 46.8555 16.4025 46.6496 17.0653C47.9593 16.1151 50.0266 15.3019 51.2208 14.8353C51.5846 13.9793 52.0383 12.9221 52.4021 12.0447C52.4248 11.9824 52.4327 11.9157 52.4252 11.8498C52.4177 11.7839 52.395 11.7207 52.3589 11.6651C52.3228 11.6095 52.2743 11.563 52.2171 11.5294C52.16 11.4957 52.0958 11.4758 52.0297 11.4712H49.9367C49.7484 11.4712 49.6714 11.2529 49.7056 11.0046C49.7353 10.8301 49.8212 10.67 49.9502 10.5487C50.0793 10.4275 50.2443 10.3516 50.4204 10.3327C52.1752 10.0801 52.6674 10.4012 53.9943 9.43385C55.2425 8.47129 56.3616 7.35213 57.3242 6.10392C57.5981 5.72727 57.8635 5.16658 58.3043 5.16658C58.4927 5.16658 59.0576 5.25646 58.8779 5.69303C58.6382 6.34789 58.2615 7.31947 57.8421 8.4109C57.4226 9.50233 57.0246 10.3198 57.5724 10.3198H59.1004C59.4471 10.3198 59.5755 10.5039 59.5285 10.7222C59.4637 10.9529 59.3206 11.1538 59.1237 11.2905C58.9269 11.4272 58.6887 11.491 58.4499 11.4712H57.1658C56.9976 11.4729 56.8335 11.5241 56.6942 11.6185C56.5549 11.7129 56.4465 11.8463 56.3826 12.0019C54.7304 15.9653 52.2223 21.2726 51.2464 23.8664C51.1945 23.9909 51.1841 24.1289 51.2166 24.2598C51.249 24.3908 51.3228 24.5078 51.4269 24.5937C51.531 24.6796 51.6599 24.7297 51.7946 24.7367C51.9294 24.7437 52.0628 24.7071 52.1752 24.6325C53.4812 23.7104 54.6774 22.642 55.7406 21.4481C56.4623 18.8705 57.8022 16.508 59.644 14.5657L60.2989 13.9108C60.7325 13.5134 61.1869 13.1391 61.6599 12.7895C63.0726 11.736 64.7815 11.1548 66.5436 11.1288C66.8296 11.1301 67.1154 11.1473 67.3996 11.1801C68.1285 11.2316 68.8304 11.4769 69.4326 11.8906C70.2458 12.5027 70.1688 13.2774 70.0404 13.5214C69.942 13.7011 69.6124 13.7439 69.377 13.7439C69.2409 13.7437 69.105 13.7337 68.9704 13.714C68.9452 13.4929 68.8706 13.2805 68.752 13.0922C68.6335 12.904 68.474 12.745 68.2856 12.6268C67.9755 12.3918 67.596 12.2668 67.207 12.2716C66.6292 12.2716 65.8502 12.5155 64.7716 13.2474C63.9656 13.8341 63.2773 14.5674 62.7428 15.4089C61.3004 17.7201 60.0677 21.2897 59.8495 23.3656C59.7467 24.3629 59.8495 25.0177 60.3331 25.0177C61.1891 25.0177 62.8113 23.4897 63.8385 21.1656C63.8856 20.9859 64.6945 18.7003 65.1696 17.6388C66.0257 15.6999 66.6206 15.3361 67.9731 15.0707C68.5097 14.9631 69.0532 14.893 69.5996 14.861H69.6252C70.0019 14.861 70.0532 15.1435 69.8906 15.5373C69.728 15.9311 69.514 16.4147 69.2785 16.9711C68.3284 19.4407 67.4253 22.0131 66.8646 23.8193C66.8299 23.9162 66.8197 24.0201 66.8348 24.1219C66.85 24.2237 66.8901 24.3202 66.9515 24.4027C67.0129 24.4853 67.0937 24.5514 67.1868 24.5953C67.2799 24.6391 67.3824 24.6592 67.4852 24.6539C67.6324 24.6521 67.7751 24.6025 67.8918 24.5127C69.405 23.3042 70.7995 21.9542 72.0563 20.4808C72.7283 18.6061 73.6271 16.4061 74.2863 14.8439C74.5175 14.3185 74.6621 13.7591 74.7143 13.1875C74.6706 12.8217 74.574 12.4641 74.4275 12.126C74.627 12.0205 74.8425 11.9482 75.0653 11.912C75.1723 11.912 75.2835 11.912 75.3948 11.912C75.808 11.9181 76.2195 11.9654 76.6232 12.0533C77.6162 12.2159 78.8574 12.8151 78.3952 14.8696C77.9672 16.663 76.0497 21.0372 75.0567 23.9092C75.0207 24.0052 75.0085 24.1085 75.0212 24.2102C75.0339 24.3119 75.0711 24.4091 75.1296 24.4933C75.1881 24.5774 75.2662 24.6462 75.3571 24.6935C75.448 24.7409 75.5491 24.7655 75.6516 24.7652C75.7806 24.7652 75.9064 24.7248 76.0112 24.6496C77.5519 23.5789 78.9574 22.3257 80.1971 20.9174C81.2928 18.1353 82.6838 14.8824 83.2788 12.7081C83.6768 11.2443 83.4072 9.34824 81.9605 8.60351C81.9646 8.52848 81.9841 8.45511 82.0179 8.38803C82.0517 8.32094 82.0991 8.2616 82.157 8.21374C82.2149 8.16588 82.2821 8.13054 82.3544 8.10996C82.4267 8.08938 82.5024 8.08401 82.5768 8.09417H82.6624C84.4002 8.1969 86.8356 10.9362 86.399 14.1163C86.3405 14.9029 86.1689 15.677 85.8896 16.4147C88.2137 13.0463 90.7262 11.484 92.6051 11.484C94.3172 11.484 95.0576 12.263 94.9335 13.4828C94.5312 17.1209 90.9359 23.2757 90.5978 27.5259C90.5213 28.8575 90.887 30.1771 91.6378 31.2795C91.4067 31.7075 91.2098 31.8445 90.9231 31.8445C90.6363 31.8445 89.4764 30.8644 89.1254 30.3336C87.8842 28.429 87.2764 27.4231 87.576 24.0333C87.9569 19.689 90.5207 15.5416 90.6577 14.2318C90.6919 13.8894 90.5849 13.7311 90.3324 13.7311C87.1737 13.7311 83.3216 23.5411 82.5854 26.2162C81.8749 26.4344 80.8306 26.8411 80.0173 26.8411C79.2041 26.8411 78.7333 26.4986 78.8617 25.3131C78.9426 24.635 79.0859 23.9659 79.2897 23.3142C77.6119 25.1162 75.0867 27.0593 73.2291 27.0593C71.6968 27.0593 70.6953 26.1562 70.8408 24.7823C70.9233 24.1731 71.0506 23.5708 71.2217 22.9804C69.1202 25.3216 66.7148 27.0593 65.0798 27.0593C63.5475 27.0593 63.1708 25.5913 63.3677 23.6352L63.4105 23.2072C61.9253 25.4543 60.316 27.0593 58.5355 27.0593C56.1857 27.0593 55.3339 25.4885 55.4409 23.3613V23.3314C53.7803 25.0905 51.3278 27.0893 49.4103 27.0893C47.878 27.0893 46.8764 26.1862 47.022 24.8123C47.0947 24.0932 48.8111 20.301 50.5274 16.3719C48.6784 17.4548 46.1531 18.94 45.6138 19.7446C45.5225 19.8931 45.4224 20.036 45.3142 20.1726C43.5166 23.5411 40.5205 26.6527 37.4645 26.6527C36.5571 26.6527 35.8808 26.2247 35.654 25.0948C34.37 28.4333 33.2101 32.371 33.2571 34.7122C32.3141 35.0207 31.3302 35.1866 30.3381 35.2044C29.5249 35.2044 28.9043 34.832 29.0541 33.5822C29.144 32.7262 30.5949 27.6842 32.2214 23.143C29.9101 25.2831 27.3591 27.0593 25.6471 27.0593C24.1105 27.0593 23.7339 25.5913 23.9351 23.6352L23.9821 23.2072C22.4927 25.4543 20.8833 27.0593 19.1028 27.0593C16.753 27.0593 15.9013 25.4885 16.0083 23.3613C13.8383 25.3944 11.1932 27.3204 8.56947 27.3204C4.01543 27.2776 2.39755 23.6267 2.85552 19.1326C3.61738 11.9848 10.2259 2.75688 18.4694 2.75688ZM35.868 13.7953C35.8634 13.8279 35.8634 13.8611 35.868 13.8937C35.868 13.8937 35.868 13.8638 35.9022 13.7953M37.3147 25.4372C39.566 25.4372 42.6563 18.0711 42.9687 15.105C43.0372 14.4416 42.8959 14.005 42.6263 13.8894C42.5757 13.865 42.5198 13.8533 42.4637 13.8552C41.4921 13.8552 39.2664 16.7186 37.9439 19.2053C37.1898 20.6119 36.6146 22.1073 36.2318 23.6566C36.2423 24.119 36.3736 24.5705 36.6127 24.9664C36.6716 25.1009 36.767 25.2163 36.888 25.2995C37.009 25.3826 37.1509 25.4304 37.2976 25.4372M79.3325 5.03389C79.4544 5.03324 79.5762 5.04327 79.6963 5.06386C80.8776 5.26074 81.1772 6.29653 80.8948 7.36227C80.5566 8.62491 79.4395 9.93034 78.0656 9.93034C77.9437 9.93073 77.822 9.92071 77.7018 9.90038C76.5248 9.70349 76.2252 8.66771 76.5076 7.60196C76.8415 6.31793 77.9629 5.03389 79.3325 5.03389ZM146.214 0.000485538C145.918 -0.00735467 145.628 0.079932 145.386 0.249472C145.144 0.419012 144.963 0.661828 144.87 0.94211C144.807 1.10059 144.778 1.27044 144.784 1.44078C144.791 1.61112 144.833 1.7782 144.908 1.93131C144.983 2.08443 145.089 2.2202 145.22 2.32993C145.35 2.43966 145.502 2.52094 145.666 2.56855C147.694 3.29189 148.555 4.84557 148.298 7.31519C148.152 8.68055 146.898 11.6253 145.567 14.7412C144.711 16.7657 143.808 18.8629 143.068 20.8532C141.591 22.424 138.732 24.38 137.581 24.38C137.508 24.3882 137.435 24.3793 137.366 24.354C137.298 24.3287 137.236 24.2878 137.187 24.2345C137.08 24.1189 136.759 23.6181 136.913 22.0687C137.21 19.8197 137.936 17.6488 139.053 15.6742C139.073 16.0611 139.197 16.4353 139.412 16.7571C139.613 17.0302 139.87 17.2577 140.165 17.4244C140.46 17.5912 140.787 17.6934 141.124 17.7244C141.281 17.7449 141.438 17.7549 141.595 17.7544C143.132 17.7544 144.459 16.7528 145.233 15.0065C145.43 14.6008 145.518 14.1511 145.49 13.7011C145.461 13.2512 145.317 12.8162 145.071 12.4385C144.685 11.918 144.18 11.4973 143.599 11.2114C143.017 10.9255 142.376 10.7827 141.728 10.7949C139.374 10.7949 136.943 11.9249 134.88 13.975C133.109 15.7438 131.808 17.9272 131.096 20.3267C130.291 21.4032 129.418 22.4269 128.481 23.3913C129.055 21.6022 129.855 19.3551 130.664 17.2536C130.976 16.5174 131.263 15.854 131.421 15.4902C131.498 15.3351 131.534 15.1632 131.527 14.9904C131.519 14.8175 131.468 14.6494 131.379 14.5015C131.306 14.3918 131.211 14.2984 131.1 14.2276C131.226 14.1367 131.328 14.018 131.4 13.8809C131.7 13.3245 131.734 12.1218 130.57 11.2486C129.858 10.7522 129.025 10.4566 128.16 10.3926C127.838 10.3513 127.513 10.3313 127.188 10.3327C125.268 10.3715 123.408 11.0139 121.873 12.1688C121.375 12.5353 120.898 12.9282 120.443 13.3459C120.443 13.3459 120.374 13.4058 119.762 14.0307C119.192 14.6244 118.668 15.2611 118.196 15.9353C117.724 15.811 117.245 15.7152 116.762 15.6486C117.504 13.6407 118.376 11.6834 119.373 9.7891L119.467 9.62217C119.998 8.65059 120.888 7.03271 122.853 6.19808C123.08 6.09964 123.281 6.00976 123.495 5.92844C124.522 5.50043 125.579 5.07242 125.746 3.95531C125.792 3.73345 125.791 3.5044 125.742 3.28313C125.693 3.06186 125.598 2.85336 125.464 2.67127C125.362 2.55311 125.236 2.45856 125.094 2.39424C124.952 2.32992 124.798 2.29739 124.642 2.2989C124.431 2.30255 124.224 2.35068 124.034 2.44015C123.15 2.74915 122.213 2.88149 121.278 2.82964C119.676 2.79564 118.077 2.67563 116.488 2.47011C115.371 2.35027 114.404 2.24326 113.749 2.24326C108.437 2.24326 104.761 4.95257 104.093 9.314C103.96 10.1957 103.781 12.3914 104.949 13.7696C105.252 14.1131 105.627 14.3853 106.047 14.5666C106.467 14.7479 106.923 14.8339 107.38 14.8182C107.864 14.8032 108.336 14.6581 108.744 14.3983C109.153 14.1385 109.485 13.7735 109.704 13.3416L110.132 12.6011L109.43 12.2202C108.185 11.621 107.012 10.2128 107.213 8.88171C107.466 7.16967 109.781 7.02415 113.505 6.91714C114.361 6.89146 115.29 6.8615 116.231 6.80158C115.463 7.39892 114.739 8.05121 114.066 8.75331C112.867 10.1144 111.694 12.3572 110.475 15.6015C101.884 16.4575 95.1732 22.0901 94.4285 29.1737C94.3187 30.0401 94.394 30.9199 94.6493 31.7551C94.9045 32.5903 95.334 33.3618 95.9094 34.0188C96.4672 34.6388 97.149 35.1348 97.9106 35.4747C98.6722 35.8146 99.4967 35.9908 100.331 35.9919H100.588C109.182 35.6067 113.496 24.4956 115.859 18.0839C116.24 18.0839 116.587 18.1225 116.89 18.1481C116.305 19.2571 115.873 20.4408 115.606 21.6664C115.486 22.1968 115.411 22.7367 115.384 23.28C115.311 24.7866 115.658 25.9465 116.415 26.7426C116.787 27.1083 117.23 27.393 117.717 27.5787C118.204 27.7644 118.724 27.8469 119.245 27.8212C120.631 27.8212 121.954 27.0979 123.315 25.5656C123.385 26.1486 123.623 26.6987 124 27.1492C124.21 27.379 124.467 27.5609 124.753 27.6828C125.04 27.8046 125.349 27.8635 125.66 27.8554H125.827C128.109 27.727 129.752 26.3617 131.088 24.7823C131.721 26.7212 133.36 27.8255 135.723 27.8255C137.35 27.7524 138.938 27.3041 140.363 26.5158C140.86 26.2515 141.339 25.9541 141.796 25.6255C141.807 26.0857 141.978 26.5277 142.28 26.8753C142.489 27.0903 142.741 27.2577 143.02 27.3663C143.3 27.4749 143.599 27.522 143.898 27.5045C144.934 27.4772 145.959 27.2821 146.933 26.9267L147.305 26.7811L147.408 26.3916C148.092 24.0343 148.984 21.7426 150.074 19.5435C150.93 20.5621 151.003 22.1971 151.076 24.0419C151.106 24.8465 151.14 25.6811 151.243 26.5072C151.594 29.3235 152.527 32.1184 157.038 33.4838C157.259 33.559 157.489 33.6036 157.723 33.6165H157.843C158.13 33.6391 158.416 33.5539 158.645 33.3775C158.874 33.2012 159.028 32.9462 159.08 32.662C159.127 32.4814 159.126 32.2916 159.077 32.1113C159.028 31.9311 158.933 31.7668 158.801 31.6348C157.474 30.4021 156.76 28.7885 156.559 26.55C156.503 25.9208 156.464 25.266 156.426 24.6026C156.229 21.1057 155.998 16.8128 152.069 16.0423C152.528 15.3731 153.042 14.7432 153.605 14.1591C153.56 14.4284 153.569 14.7042 153.633 14.9697C153.697 15.2353 153.815 15.4851 153.978 15.7042C154.214 15.9899 154.51 16.2209 154.845 16.3813C155.18 16.5416 155.545 16.6275 155.917 16.633H156.178C157.731 16.633 159.05 15.6956 159.79 14.0649C159.968 13.6835 160.045 13.2627 160.013 12.843C159.982 12.4233 159.843 12.0187 159.61 11.6681C159.255 11.1685 158.787 10.7599 158.244 10.4758C157.701 10.1916 157.099 10.0399 156.486 10.0331H156.409C154.963 10.1027 153.582 10.6525 152.484 11.5953C152.95 10.4063 153.334 9.18643 153.631 7.94437C153.819 7.09799 153.808 6.21976 153.601 5.37795C153.394 4.53614 152.996 3.75345 152.437 3.09072C151.681 2.16033 150.734 1.40299 149.661 0.869873C148.587 0.336757 147.412 0.0402843 146.214 0.000485538ZM121.29 24.136C121.282 23.9103 121.291 23.6842 121.316 23.4598C121.509 21.6279 122.626 18.1952 124.094 15.8369C124.579 15.079 125.198 14.4161 125.922 13.8809C126.498 13.417 127.191 13.1208 127.925 13.0249C128.15 13.0207 128.37 13.0931 128.55 13.2303C128.724 13.3356 128.851 13.5043 128.905 13.7011L128.858 14.2147L128.507 14.2789C126.953 14.5828 126.097 15.0921 125.134 17.3007C124.706 18.2766 123.94 20.3738 123.786 20.866C122.93 22.7364 121.851 23.7936 121.29 24.1189V24.136ZM101.212 33.3853C100.805 33.3784 100.403 33.2851 100.035 33.1118C99.6657 32.9384 99.3378 32.6888 99.0724 32.3795C98.6957 31.9394 98.4153 31.4252 98.2495 30.8701C98.0836 30.315 98.0359 29.7313 98.1094 29.1566C98.5374 25.1761 102.689 19.4536 109.52 18.3365C109.464 18.5162 109.405 18.7046 109.34 18.8972C108.073 22.8648 104.722 33.3853 101.212 33.3853ZM18.4694 1.96506C14.476 1.96506 10.4955 4.01951 7.26404 7.75176C4.41776 11.0303 2.48315 15.2548 2.0851 19.047C1.76409 22.0944 2.35475 24.5512 3.79715 26.1477C4.94422 27.4317 6.54498 28.0652 8.56091 28.0652C10.5768 28.0652 12.841 27.0465 15.3363 24.9621C15.4677 25.6283 15.7819 26.2448 16.2437 26.7426C16.617 27.1105 17.0629 27.3965 17.553 27.5822C18.0431 27.7679 18.5666 27.8493 19.09 27.8212C20.481 27.8212 21.7993 27.0979 23.1604 25.5656C23.2315 26.1323 23.4632 26.667 23.8281 27.1064C24.055 27.3506 24.3319 27.5432 24.6399 27.6709C24.9478 27.7987 25.2797 27.8587 25.6129 27.8469C27.0895 27.8469 28.8786 26.8325 30.5136 25.5913C29.3323 29.1438 28.3222 32.6834 28.2366 33.5009C28.1769 33.8278 28.1885 34.1638 28.2705 34.4858C28.3525 34.8078 28.503 35.1084 28.7117 35.367C28.9185 35.582 29.1694 35.7496 29.4473 35.8582C29.7251 35.9668 30.0232 36.0139 30.321 35.9962C31.4124 35.9755 32.4946 35.7909 33.5311 35.4484L34.0404 35.2472V34.6951C34.0019 33.0258 34.6567 30.1881 35.8124 26.9224C36.2842 27.2791 36.8648 27.4621 37.4559 27.4403C41.0084 27.4403 44.1928 23.8963 46.0161 20.5536L46.0547 20.5065C46.1488 20.3781 46.2344 20.2668 46.3029 20.1555C46.5683 19.7618 47.7025 18.9999 48.8453 18.2851C47.0691 22.3341 46.3372 24.059 46.2772 24.7053C46.2302 25.0883 46.2645 25.4769 46.3781 25.8457C46.4917 26.2145 46.682 26.5552 46.9364 26.8453C47.2613 27.1803 47.6537 27.4424 48.0876 27.6143C48.5215 27.7862 48.9869 27.864 49.4531 27.8426C51.332 27.8426 53.4165 26.3189 54.8332 25.0348C54.9741 25.6739 55.2812 26.2645 55.7234 26.7469C56.0967 27.1121 56.5415 27.3961 57.0299 27.581C57.5183 27.7659 58.0396 27.8476 58.5611 27.8212C59.9479 27.8212 61.2705 27.0979 62.6315 25.5656C62.7068 26.1357 62.9445 26.672 63.3163 27.1107C63.5428 27.3544 63.819 27.5466 64.1262 27.6743C64.4334 27.8021 64.7644 27.8624 65.0969 27.8512C66.4451 27.8512 68.2171 26.9181 70.0618 25.2831C70.1031 25.869 70.338 26.4246 70.7295 26.8625C71.0545 27.1974 71.4469 27.4595 71.8807 27.6314C72.3146 27.8033 72.78 27.8812 73.2462 27.8597C74.7528 27.8597 76.5162 26.8539 78.057 25.587C78.0179 26.1215 78.1866 26.6504 78.5279 27.0636C78.7198 27.2616 78.9523 27.4157 79.2094 27.5154C79.4665 27.6152 79.7421 27.6582 80.0173 27.6414C80.8307 27.5862 81.6313 27.4102 82.3928 27.1193L82.8208 26.9823L83.2488 26.8582L83.3644 26.4302C84.2974 23.1045 87.4562 15.9097 89.7203 14.6941C89.5748 15.1221 89.3394 15.6486 89.0997 16.2135C88.2437 18.238 87.0496 21.0115 86.7885 23.9648C86.476 27.5344 87.1138 28.6729 88.462 30.7616C88.7188 31.1511 90.0799 32.632 90.9231 32.632C91.22 32.6151 91.5065 32.5167 91.7512 32.3476C91.9958 32.1784 92.1891 31.9451 92.3098 31.6733L92.5409 31.271L92.297 30.8729C91.636 29.9132 91.3096 28.7625 91.3682 27.5986C91.548 25.4586 92.6137 22.7535 93.6452 20.1298C94.6039 17.6902 95.5113 15.3832 95.7039 13.5684C95.7545 13.2207 95.7298 12.8661 95.6316 12.5286C95.5334 12.1912 95.364 11.8788 95.1347 11.6124C94.5783 11.0046 93.7222 10.7008 92.5837 10.7008C90.8717 10.7008 88.9927 11.7066 87.2122 13.5256C87.2457 11.9067 86.6958 10.3298 85.6628 9.08288C84.7854 8.01713 83.6726 7.34943 82.6667 7.28951H82.534C82.2028 7.27743 81.8781 7.38364 81.6181 7.58912C81.7385 7.21029 81.7783 6.81043 81.7348 6.41531C81.6913 6.02018 81.5655 5.63854 81.3656 5.29498C81.1931 5.02558 80.9655 4.79584 80.6976 4.62098C80.4298 4.44611 80.1279 4.33009 79.8119 4.2806C79.6477 4.25485 79.4816 4.24197 79.3154 4.24207C77.5092 4.24207 76.1438 5.82143 75.7287 7.38367C75.6082 7.7625 75.5685 8.16236 75.612 8.55749C75.6555 8.95262 75.7812 9.33425 75.9812 9.67781C76.159 9.94413 76.3914 10.1696 76.6629 10.3393C76.9345 10.509 77.239 10.6191 77.5563 10.6622C77.7191 10.6878 77.8837 10.7007 78.0485 10.7008C78.6702 10.6672 79.2736 10.478 79.8031 10.1504C80.3326 9.82286 80.7713 9.36745 81.0788 8.82607L81.0446 8.99728L81.5753 9.2712C82.6025 9.80194 82.8122 11.2829 82.4912 12.4727C82.0375 14.1248 81.1088 16.4361 80.2099 18.6789C79.9617 19.2909 79.7177 19.8944 79.4866 20.4808C78.4148 21.6715 77.2245 22.75 75.9341 23.6995C76.315 22.6423 76.7901 21.4053 77.2781 20.2069C78.0008 18.5195 78.6211 16.79 79.1356 15.0279C79.2641 14.6012 79.3019 14.1522 79.2466 13.71C79.1913 13.2677 79.0442 12.8419 78.8146 12.4599C78.5711 12.1282 78.2619 11.8502 77.9062 11.6433C77.5505 11.4364 77.156 11.3049 76.7473 11.2572C76.2942 11.1602 75.8325 11.1086 75.3691 11.1031C75.2322 11.1031 75.0952 11.1031 74.9625 11.1031C74.636 11.1484 74.3201 11.2513 74.0295 11.407L73.3917 11.7494L73.6785 12.4128C73.7874 12.6583 73.8622 12.9175 73.9011 13.1832C73.8526 13.6422 73.7342 14.0911 73.5501 14.5143C73.1478 15.4645 72.1377 17.8828 71.3501 20.0528C70.2528 21.3203 69.0548 22.4968 67.7677 23.571C68.3455 21.7477 69.1715 19.4193 70.019 17.2236L70.6182 15.8198C70.7309 15.6246 70.7902 15.4031 70.7902 15.1778C70.7902 14.9524 70.7309 14.7309 70.6182 14.5357C70.5529 14.4376 70.4719 14.3509 70.3785 14.2789C70.5474 14.1748 70.6849 14.0269 70.7766 13.8509C71.0762 13.2945 71.1104 12.0918 69.9462 11.2187C69.2344 10.7223 68.402 10.4266 67.5365 10.3626C67.2143 10.3214 66.8898 10.3013 66.565 10.3027C64.6442 10.3416 62.7843 10.984 61.2491 12.1389C60.7372 12.51 60.2471 12.9101 59.781 13.3373C59.781 13.3373 59.7125 13.3972 59.0962 14.0221C57.2162 16.0155 55.8372 18.4274 55.0729 21.0586C54.1971 22.0236 53.2358 22.9075 52.2009 23.6995C52.7659 22.2656 53.6861 20.1983 54.6577 18.024C55.5137 16.0809 56.4168 14.0735 57.1487 12.3101C57.1536 12.2988 57.1613 12.289 57.171 12.2815C57.1808 12.274 57.1922 12.2691 57.2044 12.2673H58.4884C58.9172 12.2908 59.3403 12.16 59.681 11.8985C60.0218 11.6371 60.2576 11.2623 60.346 10.842C60.3721 10.6828 60.363 10.5199 60.3194 10.3646C60.2757 10.2093 60.1986 10.0655 60.0934 9.94318C59.9705 9.80924 59.8199 9.70353 59.6522 9.63333C59.4845 9.56314 59.3036 9.53013 59.1218 9.53657H58.2658C58.3257 9.37393 58.3985 9.19844 58.4584 9.04864L58.5911 8.70195L58.7238 8.36382C59.0962 7.40508 59.4129 6.57473 59.6312 5.98408C59.7018 5.81845 59.7301 5.63788 59.7137 5.45859C59.6973 5.27929 59.6365 5.10689 59.537 4.95685C59.3926 4.77397 59.2076 4.62729 58.9966 4.52847C58.7855 4.42965 58.5544 4.38141 58.3215 4.3876C57.5425 4.3876 57.1188 5.02533 56.8405 5.44906C56.7935 5.51755 56.7507 5.58603 56.7036 5.65023C55.7889 6.83013 54.729 7.88997 53.5491 8.80467C53.005 9.24319 52.3162 9.4616 51.6188 9.41673C51.2764 9.43813 50.8527 9.46809 50.3348 9.54085C49.9865 9.58072 49.661 9.73381 49.4081 9.97659C49.1553 10.2194 48.9891 10.5384 48.9352 10.8848C48.9031 11.0647 48.9098 11.2495 48.9548 11.4266C48.9998 11.6038 49.0821 11.7693 49.1963 11.912C49.2894 12.019 49.4045 12.1046 49.5338 12.163C49.6631 12.2214 49.8034 12.2511 49.9453 12.2502H51.4433C51.1737 12.8965 50.8784 13.5941 50.613 14.2147C49.8511 14.5101 48.8068 14.9338 47.8181 15.4388C47.8181 15.3276 47.848 15.2163 47.8609 15.1093C48.0192 13.5941 47.7539 12.4428 47.0733 11.6852C46.7963 11.3893 46.4586 11.157 46.0832 11.004C45.7079 10.8511 45.3039 10.7812 44.899 10.7992C43.7991 10.7992 42.2282 11.1844 40.4306 12.7809C40.3488 12.4845 40.2026 12.2098 40.0026 11.9762C39.489 11.3941 38.6372 11.0432 37.5244 10.979H37.2462C35.4058 10.979 33.591 12.0362 32.9661 13.0163C32.8538 13.2066 32.7816 13.4178 32.7541 13.637C32.7265 13.8563 32.7442 14.0788 32.8059 14.291C32.8677 14.5031 32.9723 14.7003 33.1132 14.8705C33.2541 15.0407 33.4283 15.1802 33.6252 15.2805L34.203 15.5587C33.4573 17.2061 32.7959 18.8903 32.2214 20.6049C30.9913 21.8287 29.6437 22.9283 28.198 23.8878C28.7716 22.0473 29.649 19.552 30.535 17.2579C30.7447 16.7657 30.963 16.2949 31.1042 15.9353C31.2221 15.7287 31.2841 15.4948 31.2841 15.2569C31.2841 15.019 31.2221 14.7852 31.1042 14.5785C31.0376 14.4789 30.9552 14.3907 30.8603 14.3175C31.0391 14.2162 31.187 14.0682 31.2883 13.8894C31.6393 13.2902 31.7163 12.0704 30.5136 11.1673C29.8007 10.6728 28.9689 10.3773 28.1039 10.3113C27.7869 10.2784 27.4681 10.2656 27.1494 10.2727C25.1958 10.3222 23.3079 10.989 21.7565 12.1774C21.2592 12.5439 20.782 12.9368 20.3269 13.3544C20.3269 13.3544 20.2584 13.4143 19.6464 14.0392C17.6616 16.1192 16.2298 18.6635 15.4818 21.4396C13.65 23.3742 11.7325 24.5255 10.3457 24.5255C10.1331 24.5398 9.91996 24.506 9.72215 24.4267C9.52433 24.3474 9.34688 24.2247 9.20293 24.0675C8.62511 23.4255 8.4111 22.0687 8.59943 20.2454C9.26285 13.9494 14.7243 4.6658 18.7604 4.67009H18.7861C18.2222 5.10383 17.7799 5.67586 17.5021 6.33077C17.304 6.73945 17.2043 7.18881 17.211 7.64291C17.2177 8.09701 17.3306 8.54324 17.5406 8.94591C17.7244 9.30159 17.991 9.60782 18.3181 9.83875C18.6451 10.0697 19.0229 10.2185 19.4195 10.2727C19.5612 10.2937 19.7043 10.3037 19.8476 10.3027C21.2343 10.3027 23.0191 9.36965 23.8794 7.30663C24.0665 6.81452 24.1299 6.28403 24.0643 5.76168C23.9986 5.23933 23.8058 4.74107 23.5028 4.31056C22.5954 2.91096 20.9005 2.06778 18.8503 2.00358H18.4694V1.96506ZM60.607 24.136C60.5988 23.9103 60.6074 23.6842 60.6327 23.4598C60.8253 21.6279 61.9424 18.1952 63.4105 15.8369C63.8942 15.078 64.5138 14.4149 65.2381 13.8809C65.81 13.4176 66.4987 13.1213 67.2284 13.0249C67.4514 13.0199 67.6693 13.0925 67.8447 13.2303C68.0179 13.3373 68.1446 13.5053 68.2 13.7011L68.1529 14.2147L67.8233 14.2789C66.2696 14.5828 65.4136 15.0921 64.4463 17.3007C64.0183 18.2723 63.2564 20.3738 63.0981 20.866C62.2677 22.7364 61.1677 23.7936 60.607 24.1189V24.136ZM21.1359 24.136C21.1277 23.9103 21.1362 23.6842 21.1616 23.4598C21.3542 21.6279 22.4713 18.1952 23.9393 15.8369C24.4243 15.079 25.0437 14.4161 25.7669 13.8809C26.3566 13.4196 27.064 13.1334 27.8086 13.0548C28.0543 13.0479 28.2953 13.1233 28.4934 13.2688C28.6674 13.3748 28.7945 13.5432 28.8486 13.7396L28.8058 14.2147C28.6603 14.2147 28.5062 14.2661 28.3521 14.2961C26.7985 14.5999 25.9424 15.1093 24.9794 17.3178C24.5514 18.2937 23.7853 20.3909 23.6312 20.8831C22.7966 22.7535 21.6966 23.8107 21.1359 24.136ZM37.0022 23.7508C37.3653 22.2982 37.9043 20.8954 38.6073 19.5734C39.8057 17.3178 41.3893 15.3918 42.1598 14.8097C42.1635 14.8809 42.1635 14.9524 42.1598 15.0237C42.0142 16.4361 41.1625 18.9614 40.1396 21.0158C38.7828 23.7637 37.7427 24.5683 37.3404 24.6282C37.3222 24.6056 37.3065 24.5813 37.2933 24.5555C37.1421 24.3049 37.0472 24.0245 37.0151 23.7337L37.0022 23.7508Z" fill="#181716"/>
</g>
<defs>
<filter id="filter0_d_4695_10131" x="0" y="0" width="162.02" height="40" filterUnits="userSpaceOnUse" color-interpolation-filters="sRGB">
<feFlood flood-opacity="0" result="BackgroundImageFix"/>
<feColorMatrix in="SourceAlpha" type="matrix" values="0 0 0 0 0 0 0 0 0 0 0 0 0 0 0 0 0 0 127 0" result="hardAlpha"/>
<feOffset dy="2"/>
<feGaussianBlur stdDeviation="1"/>
<feComposite in2="hardAlpha" operator="out"/>
<feColorMatrix type="matrix" values="0 0 0 0 0.0941176 0 0 0 0 0.0117647 0 0 0 0 0.00784314 0 0 0 1 0"/>
<feBlend mode="normal" in2="BackgroundImageFix" result="effect1_dropShadow_4695_10131"/>
<feBlend mode="normal" in="SourceGraphic" in2="effect1_dropShadow_4695_10131" result="shape"/>
</filter>
</defs>
</svg>
