<svg width="207" height="40" viewBox="0 0 207 40" fill="none" xmlns="http://www.w3.org/2000/svg">
<g filter="url(#filter0_d_4587_7896)">
<path d="M25.7128 11.469H25.0047C24.8678 10.2229 24.4339 9.02779 23.7396 7.98404C23.1118 7.03168 22.2628 6.24546 21.2651 5.69258C20.3226 5.17109 19.2631 4.89733 18.186 4.89693C16.8585 4.9 15.5631 5.30499 14.4703 6.05857C13.2178 6.9647 12.2425 8.20174 11.6537 9.63104C10.8739 11.5128 10.5023 13.5386 10.5636 15.5745C10.5069 17.4341 10.8487 19.2843 11.5662 21.0009C12.0965 22.3208 12.9973 23.4592 14.16 24.2789C15.1939 24.9758 16.414 25.3446 17.6608 25.3371C18.7249 25.3215 19.7698 25.0514 20.7082 24.5495C21.7323 24.0166 22.6283 23.2673 23.3338 22.3535C24.1136 21.3522 24.6723 20.197 24.9728 18.964H25.681V23.0377C24.5632 24.1525 23.239 25.0389 21.7823 25.6474C20.2741 26.2941 18.6493 26.6244 17.0084 26.6181C14.995 26.6295 13.015 26.1048 11.2713 25.0981C9.52774 24.0914 8.08342 22.6388 7.08665 20.8895C6.08058 19.1295 5.56409 17.1322 5.59083 15.1051C5.57376 13.0751 6.10129 11.0776 7.11848 9.32073C8.11334 7.56975 9.55723 6.1158 11.3013 5.10882C13.0453 4.10183 15.0264 3.57825 17.0402 3.59206C18.6806 3.58281 20.3055 3.91049 21.8141 4.5548C23.2686 5.17099 24.5919 6.05949 25.7128 7.17248V11.469Z" fill="white"/>
<path d="M37.6075 7.99207C38.0608 7.90941 38.4901 7.72735 38.8646 7.45898L44.5297 23.4277L45.0707 24.8996C45.206 25.2656 45.3094 25.5282 45.373 25.6953C45.4367 25.8623 45.5003 25.9658 45.5322 26.0294V26.1329H40.9651V25.9499C40.9824 25.8231 40.9824 25.6947 40.9651 25.568C40.9409 25.299 40.8929 25.0328 40.8219 24.7723C40.7424 24.4222 40.5992 23.9767 40.4162 23.4038L35.865 10.3313H36.2788L31.306 23.4277C31.0832 23.9952 30.9161 24.4647 30.8047 24.836C30.717 25.0948 30.6531 25.3611 30.6138 25.6316C30.5976 25.7504 30.5976 25.8708 30.6138 25.9896V26.1408H29.0225V26.0374L29.1895 25.7032C29.2612 25.552 29.3805 25.2895 29.5317 24.9076C29.6828 24.5257 29.8818 24.0483 30.1205 23.4356L36.0242 8.17507C36.5571 8.17318 37.0882 8.1118 37.6075 7.99207ZM40.7901 20.6349V21.7091H31.5844V20.6349H40.7901Z" fill="white"/>
<path d="M60.2518 9.68659C60.8859 10.1719 61.3939 10.8026 61.7332 11.5254C62.0724 12.2482 62.2329 13.042 62.2012 13.8399C62.2302 15.0171 61.8663 16.1705 61.1668 17.1179C60.4578 18.0433 59.5083 18.7561 58.4218 19.1787C57.2532 19.6461 56.0046 19.8813 54.7459 19.8709C54.5072 19.8709 54.2685 19.8709 54.0378 19.8709C53.8071 19.8709 53.5684 19.8311 53.3297 19.7913V18.9957H53.6639C54.5176 19.0117 55.3612 18.809 56.1145 18.4069C56.8223 18.0082 57.3977 17.4107 57.7694 16.6883C58.1776 15.8602 58.3796 14.9458 58.3582 14.0229C58.3806 13.126 58.2153 12.2344 57.8728 11.4052C57.5731 10.7359 57.0689 10.1788 56.4327 9.81389C55.7282 9.42264 54.9307 9.23014 54.1253 9.25694H51.8975L52.3113 8.85116V23.4274C52.3113 23.9048 52.3113 24.2947 52.3113 24.605C52.3113 24.9153 52.3113 25.1699 52.351 25.4007C52.3653 25.6115 52.3919 25.8214 52.4306 26.0292V26.1326H48.333V26.0292C48.333 25.8223 48.3967 25.6155 48.4126 25.4007C48.4285 25.1858 48.4126 24.9312 48.4126 24.605C48.4126 24.2788 48.4126 23.9048 48.4126 23.4274V10.8641C48.4126 10.3868 48.4126 9.99689 48.4126 9.68659C48.4126 9.37628 48.4126 9.12168 48.4126 8.89094C48.4126 8.6602 48.3648 8.46924 48.333 8.26238V8.17485H54.9767C56.855 8.07105 58.7135 8.60365 60.2518 9.68659Z" fill="white"/>
<path d="M76.937 8.17578V9.43291H76.8336C76.637 9.38245 76.4378 9.34261 76.2369 9.31356C76.0379 9.31356 75.7992 9.27378 75.5128 9.26582H74.5023H72.553L72.9667 8.86004V23.4284C72.9667 23.8898 72.9667 24.2718 72.9667 24.5661C72.9667 24.8605 72.9667 25.1151 73.0145 25.3141C73.0622 25.513 73.0702 25.696 73.102 25.8869V26.0142V26.1177H68.9408V26.0142V25.8869C68.9408 25.696 69.0044 25.505 69.0362 25.3141C69.0681 25.1231 69.0362 24.8685 69.084 24.5661C69.1317 24.2638 69.084 23.8898 69.084 23.4284V8.84413L69.4897 9.24991H67.5802H66.5697C66.2939 9.24991 66.0552 9.26582 65.8536 9.29765C65.6501 9.32667 65.4482 9.36651 65.2489 9.41699H65.1455V8.17578H76.937Z" fill="white"/>
<path d="M85.8719 7.99207C86.3245 7.90742 86.7535 7.72554 87.129 7.45898L92.794 23.4277L93.3351 24.8996C93.4703 25.2656 93.5738 25.5282 93.6374 25.6953C93.6846 25.8093 93.7377 25.9209 93.7965 26.0294V26.1329H89.2295V25.9499C89.2427 25.8229 89.2427 25.6949 89.2295 25.568C89.2052 25.299 89.1573 25.0328 89.0863 24.7723C88.9988 24.4222 88.8635 23.9767 88.6805 23.4038L84.1294 10.3313H84.5431L79.5862 23.4277C79.3635 24.0058 79.1964 24.4753 79.085 24.836C78.9973 25.0948 78.9334 25.3611 78.894 25.6316C78.8779 25.7504 78.8779 25.8708 78.894 25.9896V26.1408H77.3027V26.0374L77.4698 25.7032C77.5414 25.552 77.6608 25.2895 77.8119 24.9076C77.9631 24.5257 78.162 24.0483 78.4007 23.4356L84.2885 8.17507C84.8215 8.17318 85.3525 8.1118 85.8719 7.99207ZM89.0545 20.6349V21.7091H79.8488V20.6349H89.0545Z" fill="white"/>
<path d="M100.901 8.17578V8.27922C100.901 8.48608 100.846 8.69295 100.83 8.90778C100.814 9.1226 100.83 9.37721 100.83 9.70343C100.83 10.0296 100.83 10.4036 100.83 10.881V23.4284C100.83 23.9058 100.83 24.2956 100.83 24.6059C100.83 24.9162 100.83 25.1708 100.83 25.4016C100.83 25.6323 100.83 25.8233 100.901 26.0301V26.1336H96.8037V26.0301C96.8037 25.8233 96.8594 25.6164 96.8833 25.4016C96.9071 25.1868 96.8833 24.9321 96.8833 24.6059C96.8833 24.2797 96.8833 23.9058 96.8833 23.4284V10.8651C96.8833 10.3877 96.8833 9.99782 96.8833 9.68751C96.8833 9.37721 96.8833 9.1226 96.8833 8.89186C96.8833 8.66113 96.8355 8.47017 96.8037 8.2633V8.17578H100.901Z" fill="white"/>
<path d="M106.447 8.17455L120.387 21.0959H119.727V10.8638C119.727 10.3865 119.727 9.99658 119.727 9.68628C119.727 9.37598 119.727 9.12137 119.679 8.89063C119.651 8.67896 119.612 8.46908 119.56 8.26207V8.17455H120.96V8.27798C120.96 8.48485 120.896 8.69172 120.88 8.90654C120.864 9.12137 120.88 9.37598 120.88 9.70219C120.88 10.0284 120.88 10.4024 120.88 10.8798V23.6817C120.88 24.0716 120.88 24.4137 120.88 24.7081C120.88 25.0025 120.88 25.2492 120.928 25.464C120.954 25.6857 121.002 25.9043 121.071 26.1164H120.276L106.24 13.2269H106.909V23.4271C106.909 23.9045 106.909 24.2944 106.909 24.6047C106.909 24.915 106.909 25.1696 106.965 25.4003C106.989 25.6119 107.027 25.8217 107.076 26.0289V26.1323H105.691V26.0289C105.73 25.8211 105.757 25.6112 105.771 25.4003C105.771 25.1855 105.771 24.9309 105.771 24.6047C105.771 24.2785 105.771 23.9045 105.771 23.4271V10.6092C105.771 10.2194 105.771 9.87724 105.771 9.58285C105.769 9.31675 105.75 9.05104 105.715 8.7872C105.689 8.56632 105.643 8.34808 105.58 8.13477L106.447 8.17455Z" fill="white"/>
<path d="M144.336 3.5918V3.7191C144.288 3.98166 144.257 4.24423 144.233 4.51475C144.209 4.78527 144.233 5.11149 144.185 5.50135C144.137 5.89122 144.185 6.37657 144.185 6.98126V22.2259C144.233 23.9391 143.829 25.6348 143.015 27.143C142.245 28.4836 141.119 29.585 139.761 30.3256C138.284 31.1262 136.66 31.6188 134.987 31.7737V30.978C135.892 30.6649 136.697 30.1155 137.319 29.3867C138.041 28.5107 138.563 27.4868 138.846 26.3871C139.243 24.8928 139.428 23.35 139.395 21.8042V6.9733C139.395 6.36861 139.395 5.87531 139.395 5.4934C139.395 5.11149 139.395 4.77731 139.347 4.50679C139.3 4.23627 139.292 3.98166 139.244 3.71114V3.5918H144.336Z" fill="white"/>
<path d="M155.833 7.99207C156.286 7.90941 156.716 7.72735 157.09 7.45898L162.755 23.4277L163.296 24.8996C163.432 25.2656 163.535 25.5282 163.599 25.6953C163.662 25.8623 163.726 25.9658 163.758 26.0294V26.1329H159.191V25.9499C159.208 25.8231 159.208 25.6947 159.191 25.568C159.166 25.299 159.119 25.0328 159.048 24.7723C158.968 24.4222 158.825 23.9767 158.642 23.4038L154.091 10.3313H154.504L149.532 23.4277C149.309 24.0058 149.142 24.4753 149.03 24.836C148.943 25.0948 148.879 25.3611 148.839 25.6316C148.823 25.7504 148.823 25.8708 148.839 25.9896V26.1408H147.248V26.0374L147.415 25.7032C147.487 25.552 147.606 25.2895 147.757 24.9076C147.908 24.5257 148.107 24.0483 148.346 23.4356L154.274 8.18302C154.799 8.17676 155.322 8.11273 155.833 7.99207ZM159.016 20.6349V21.7091H149.786V20.6349H159.016Z" fill="white"/>
<path d="M181.771 14.0477H181.174C181.066 13.0209 180.711 12.0356 180.14 11.1754C179.623 10.3917 178.924 9.74467 178.103 9.2897C177.326 8.85991 176.453 8.63536 175.565 8.63727C174.469 8.63573 173.4 8.97189 172.502 9.6C171.469 10.3436 170.665 11.3603 170.178 12.5359C169.538 14.0854 169.234 15.7534 169.287 17.4292C169.232 18.9593 169.503 20.4838 170.083 21.9007C170.523 22.9822 171.266 23.9133 172.223 24.5821C173.074 25.1541 174.078 25.4564 175.104 25.4493C175.988 25.4482 176.859 25.2325 177.642 24.8208C178.499 24.3893 179.249 23.7723 179.838 23.0146C180.482 22.1916 180.941 21.2389 181.182 20.2219H181.779V23.5796C180.853 24.498 179.759 25.23 178.557 25.7358C177.314 26.2651 175.977 26.5358 174.626 26.5314C172.967 26.5384 171.336 26.1053 169.9 25.2765C168.463 24.4476 167.271 23.2526 166.447 21.8132C165.61 20.3624 165.176 18.7142 165.19 17.0393C165.178 15.379 165.605 13.745 166.426 12.302C167.247 10.859 168.435 9.6581 169.868 8.82027C171.316 7.97498 172.966 7.5378 174.642 7.55519C176.009 7.5447 177.363 7.81553 178.62 8.35084C179.808 8.86136 180.888 9.59309 181.803 10.507L181.771 14.0477Z" fill="white"/>
<path d="M189.975 8.17578V8.27922C189.926 8.48638 189.888 8.69626 189.863 8.90778C189.863 9.1226 189.816 9.37721 189.808 9.70343C189.8 10.0296 189.808 10.4036 189.808 10.881V16.1641H189.386L195.027 10.881C195.505 10.4354 195.934 10.0217 196.324 9.63977C196.714 9.25786 196.992 8.95552 197.175 8.73274C197.304 8.61128 197.402 8.46139 197.462 8.29513V8.17578H199.483V8.27922C199.3 8.41448 199.109 8.56565 198.91 8.74069C198.711 8.91573 198.488 9.11465 198.226 9.34538L197.382 10.141L196.587 10.881L194.614 12.7508V11.9551L199.539 22.8953C199.809 23.5554 200.139 24.1892 200.525 24.7889C200.791 25.1637 201.101 25.5056 201.448 25.8074V26.1177C200.655 26.3235 199.825 26.3363 199.026 26.155C198.227 25.9736 197.483 25.6034 196.857 25.0754C196.151 24.488 195.604 23.7329 195.266 22.8794L191.805 14.6046H192.449L189.45 17.3974L189.784 16.7051V23.3965C189.784 23.8739 189.784 24.2638 189.784 24.5741C189.784 24.8844 189.784 25.139 189.84 25.3698C189.864 25.5813 189.902 25.7911 189.951 25.9983V26.1017H185.806V25.9983C185.806 25.7914 185.861 25.5846 185.877 25.3698C185.893 25.1549 185.877 24.9003 185.877 24.5741C185.877 24.2479 185.877 23.8739 185.877 23.3965V10.8651C185.877 10.3877 185.877 9.99782 185.877 9.68751C185.877 9.37721 185.877 9.1226 185.877 8.89186C185.877 8.66113 185.837 8.47017 185.806 8.2633V8.17578H189.975Z" fill="white"/>
<path d="M25.7128 11.469H25.0047C24.8678 10.2229 24.4339 9.02779 23.7396 7.98404C23.1118 7.03168 22.2628 6.24546 21.2651 5.69258C20.3226 5.17109 19.2631 4.89733 18.186 4.89693C16.8585 4.9 15.5631 5.30499 14.4703 6.05857C13.2178 6.9647 12.2425 8.20174 11.6537 9.63104C10.8739 11.5128 10.5023 13.5386 10.5636 15.5745C10.5069 17.4341 10.8487 19.2843 11.5662 21.0009C12.0965 22.3208 12.9973 23.4592 14.16 24.2789C15.1939 24.9758 16.414 25.3446 17.6608 25.3371C18.7249 25.3215 19.7698 25.0514 20.7082 24.5495C21.7323 24.0166 22.6283 23.2673 23.3338 22.3535C24.1136 21.3522 24.6723 20.197 24.9728 18.964H25.681V23.0377C24.5632 24.1525 23.239 25.0389 21.7823 25.6474C20.2741 26.2941 18.6493 26.6244 17.0084 26.6181C14.995 26.6295 13.015 26.1048 11.2713 25.0981C9.52774 24.0914 8.08342 22.6388 7.08665 20.8895C6.08058 19.1295 5.56409 17.1322 5.59083 15.1051C5.57376 13.0751 6.10129 11.0776 7.11848 9.32073C8.11334 7.56975 9.55723 6.1158 11.3013 5.10882C13.0453 4.10183 15.0264 3.57825 17.0402 3.59206C18.6806 3.58281 20.3055 3.91049 21.8141 4.5548C23.2686 5.17099 24.5919 6.05949 25.7128 7.17248V11.469Z" stroke="#1D1D1B" stroke-width="2.7" stroke-linecap="round" stroke-linejoin="round"/>
<path d="M37.6075 7.99207C38.0608 7.90941 38.4901 7.72735 38.8646 7.45898L44.5297 23.4277L45.0707 24.8996C45.206 25.2656 45.3094 25.5282 45.373 25.6953C45.4367 25.8623 45.5003 25.9658 45.5322 26.0294V26.1329H40.9651V25.9499C40.9824 25.8231 40.9824 25.6947 40.9651 25.568C40.9409 25.299 40.8929 25.0328 40.8219 24.7723C40.7424 24.4222 40.5992 23.9767 40.4162 23.4038L35.865 10.3313H36.2788L31.306 23.4277C31.0832 23.9952 30.9161 24.4647 30.8047 24.836C30.717 25.0948 30.6531 25.3611 30.6138 25.6316C30.5976 25.7504 30.5976 25.8708 30.6138 25.9896V26.1408H29.0225V26.0374L29.1895 25.7032C29.2612 25.552 29.3805 25.2895 29.5317 24.9076C29.6828 24.5257 29.8818 24.0483 30.1205 23.4356L36.0242 8.17507C36.5571 8.17318 37.0882 8.1118 37.6075 7.99207ZM40.7901 20.6349V21.7091H31.5844V20.6349H40.7901Z" stroke="#1D1D1B" stroke-width="2.7" stroke-linecap="round" stroke-linejoin="round"/>
<path d="M60.2518 9.68659C60.8859 10.1719 61.3939 10.8026 61.7332 11.5254C62.0724 12.2482 62.2329 13.042 62.2012 13.8399C62.2302 15.0171 61.8663 16.1705 61.1668 17.1179C60.4578 18.0433 59.5083 18.7561 58.4218 19.1787C57.2532 19.6461 56.0046 19.8813 54.7459 19.8709C54.5072 19.8709 54.2685 19.8709 54.0378 19.8709C53.8071 19.8709 53.5684 19.8311 53.3297 19.7913V18.9957H53.6639C54.5176 19.0117 55.3612 18.809 56.1145 18.4069C56.8223 18.0082 57.3977 17.4107 57.7694 16.6883C58.1776 15.8602 58.3796 14.9458 58.3582 14.0229C58.3806 13.126 58.2153 12.2344 57.8728 11.4052C57.5731 10.7359 57.0689 10.1788 56.4327 9.81389C55.7282 9.42264 54.9307 9.23014 54.1253 9.25694H51.8975L52.3113 8.85116V23.4274C52.3113 23.9048 52.3113 24.2947 52.3113 24.605C52.3113 24.9153 52.3113 25.1699 52.351 25.4007C52.3653 25.6115 52.3919 25.8214 52.4306 26.0292V26.1326H48.333V26.0292C48.333 25.8223 48.3967 25.6155 48.4126 25.4007C48.4285 25.1858 48.4126 24.9312 48.4126 24.605C48.4126 24.2788 48.4126 23.9048 48.4126 23.4274V10.8641C48.4126 10.3868 48.4126 9.99689 48.4126 9.68659C48.4126 9.37628 48.4126 9.12168 48.4126 8.89094C48.4126 8.6602 48.3648 8.46924 48.333 8.26238V8.17485H54.9767C56.855 8.07105 58.7135 8.60365 60.2518 9.68659Z" stroke="#1D1D1B" stroke-width="2.7" stroke-linecap="round" stroke-linejoin="round"/>
<path d="M76.937 8.17578V9.43291H76.8336C76.637 9.38245 76.4378 9.34261 76.2369 9.31356C76.0379 9.31356 75.7992 9.27378 75.5128 9.26582H74.5023H72.553L72.9667 8.86004V23.4284C72.9667 23.8898 72.9667 24.2718 72.9667 24.5661C72.9667 24.8605 72.9667 25.1151 73.0145 25.3141C73.0622 25.513 73.0702 25.696 73.102 25.8869V26.0142V26.1177H68.9408V26.0142V25.8869C68.9408 25.696 69.0044 25.505 69.0362 25.3141C69.0681 25.1231 69.0362 24.8685 69.084 24.5661C69.1317 24.2638 69.084 23.8898 69.084 23.4284V8.84413L69.4897 9.24991H67.5802H66.5697C66.2939 9.24991 66.0552 9.26582 65.8536 9.29765C65.6501 9.32667 65.4482 9.36651 65.2489 9.41699H65.1455V8.17578H76.937Z" stroke="#1D1D1B" stroke-width="2.7" stroke-linecap="round" stroke-linejoin="round"/>
<path d="M85.8719 7.99207C86.3245 7.90742 86.7535 7.72554 87.129 7.45898L92.794 23.4277L93.3351 24.8996C93.4703 25.2656 93.5738 25.5282 93.6374 25.6953C93.6846 25.8093 93.7377 25.9209 93.7965 26.0294V26.1329H89.2295V25.9499C89.2427 25.8229 89.2427 25.6949 89.2295 25.568C89.2052 25.299 89.1573 25.0328 89.0863 24.7723C88.9988 24.4222 88.8635 23.9767 88.6805 23.4038L84.1294 10.3313H84.5431L79.5862 23.4277C79.3635 24.0058 79.1964 24.4753 79.085 24.836C78.9973 25.0948 78.9334 25.3611 78.894 25.6316C78.8779 25.7504 78.8779 25.8708 78.894 25.9896V26.1408H77.3027V26.0374L77.4698 25.7032C77.5414 25.552 77.6608 25.2895 77.8119 24.9076C77.9631 24.5257 78.162 24.0483 78.4007 23.4356L84.2885 8.17507C84.8215 8.17318 85.3525 8.1118 85.8719 7.99207ZM89.0545 20.6349V21.7091H79.8488V20.6349H89.0545Z" stroke="#1D1D1B" stroke-width="2.7" stroke-linecap="round" stroke-linejoin="round"/>
<path d="M100.901 8.17578V8.27922C100.901 8.48608 100.846 8.69295 100.83 8.90778C100.814 9.1226 100.83 9.37721 100.83 9.70343C100.83 10.0296 100.83 10.4036 100.83 10.881V23.4284C100.83 23.9058 100.83 24.2956 100.83 24.6059C100.83 24.9162 100.83 25.1708 100.83 25.4016C100.83 25.6323 100.83 25.8233 100.901 26.0301V26.1336H96.8037V26.0301C96.8037 25.8233 96.8594 25.6164 96.8833 25.4016C96.9071 25.1868 96.8833 24.9321 96.8833 24.6059C96.8833 24.2797 96.8833 23.9058 96.8833 23.4284V10.8651C96.8833 10.3877 96.8833 9.99782 96.8833 9.68751C96.8833 9.37721 96.8833 9.1226 96.8833 8.89186C96.8833 8.66113 96.8355 8.47017 96.8037 8.2633V8.17578H100.901Z" stroke="#1D1D1B" stroke-width="2.7" stroke-linecap="round" stroke-linejoin="round"/>
<path d="M106.447 8.17455L120.387 21.0959H119.727V10.8638C119.727 10.3865 119.727 9.99658 119.727 9.68628C119.727 9.37598 119.727 9.12137 119.679 8.89063C119.651 8.67896 119.612 8.46908 119.56 8.26207V8.17455H120.96V8.27798C120.96 8.48485 120.896 8.69172 120.88 8.90654C120.864 9.12137 120.88 9.37598 120.88 9.70219C120.88 10.0284 120.88 10.4024 120.88 10.8798V23.6817C120.88 24.0716 120.88 24.4137 120.88 24.7081C120.88 25.0025 120.88 25.2492 120.928 25.464C120.954 25.6857 121.002 25.9043 121.071 26.1164H120.276L106.24 13.2269H106.909V23.4271C106.909 23.9045 106.909 24.2944 106.909 24.6047C106.909 24.915 106.909 25.1696 106.965 25.4003C106.989 25.6119 107.027 25.8217 107.076 26.0289V26.1323H105.691V26.0289C105.73 25.8211 105.757 25.6112 105.771 25.4003C105.771 25.1855 105.771 24.9309 105.771 24.6047C105.771 24.2785 105.771 23.9045 105.771 23.4271V10.6092C105.771 10.2194 105.771 9.87724 105.771 9.58285C105.769 9.31675 105.75 9.05104 105.715 8.7872C105.689 8.56632 105.643 8.34808 105.58 8.13477L106.447 8.17455Z" stroke="#1D1D1B" stroke-width="2.7" stroke-linecap="round" stroke-linejoin="round"/>
<path d="M144.336 3.5918V3.7191C144.288 3.98166 144.257 4.24423 144.233 4.51475C144.209 4.78527 144.233 5.11149 144.185 5.50135C144.137 5.89122 144.185 6.37657 144.185 6.98126V22.2259C144.233 23.9391 143.829 25.6348 143.015 27.143C142.245 28.4836 141.119 29.585 139.761 30.3256C138.284 31.1262 136.66 31.6188 134.987 31.7737V30.978C135.892 30.6649 136.697 30.1155 137.319 29.3867C138.041 28.5107 138.563 27.4868 138.846 26.3871C139.243 24.8928 139.428 23.35 139.395 21.8042V6.9733C139.395 6.36861 139.395 5.87531 139.395 5.4934C139.395 5.11149 139.395 4.77731 139.347 4.50679C139.3 4.23627 139.292 3.98166 139.244 3.71114V3.5918H144.336Z" stroke="#1D1D1B" stroke-width="2.7" stroke-linecap="round" stroke-linejoin="round"/>
<path d="M155.833 7.99207C156.286 7.90941 156.716 7.72735 157.09 7.45898L162.755 23.4277L163.296 24.8996C163.432 25.2656 163.535 25.5282 163.599 25.6953C163.662 25.8623 163.726 25.9658 163.758 26.0294V26.1329H159.191V25.9499C159.208 25.8231 159.208 25.6947 159.191 25.568C159.166 25.299 159.119 25.0328 159.048 24.7723C158.968 24.4222 158.825 23.9767 158.642 23.4038L154.091 10.3313H154.504L149.532 23.4277C149.309 24.0058 149.142 24.4753 149.03 24.836C148.943 25.0948 148.879 25.3611 148.839 25.6316C148.823 25.7504 148.823 25.8708 148.839 25.9896V26.1408H147.248V26.0374L147.415 25.7032C147.487 25.552 147.606 25.2895 147.757 24.9076C147.908 24.5257 148.107 24.0483 148.346 23.4356L154.274 8.18302C154.799 8.17676 155.322 8.11273 155.833 7.99207ZM159.016 20.6349V21.7091H149.786V20.6349H159.016Z" stroke="#1D1D1B" stroke-width="2.7" stroke-linecap="round" stroke-linejoin="round"/>
<path d="M181.771 14.0477H181.174C181.066 13.0209 180.711 12.0356 180.14 11.1754C179.623 10.3917 178.924 9.74467 178.103 9.2897C177.326 8.85991 176.453 8.63536 175.565 8.63727C174.469 8.63573 173.4 8.97189 172.502 9.6C171.469 10.3436 170.665 11.3603 170.178 12.5359C169.538 14.0854 169.234 15.7534 169.287 17.4292C169.232 18.9593 169.503 20.4838 170.083 21.9007C170.523 22.9822 171.266 23.9133 172.223 24.5821C173.074 25.1541 174.078 25.4564 175.104 25.4493C175.988 25.4482 176.859 25.2325 177.642 24.8208C178.499 24.3893 179.249 23.7723 179.838 23.0146C180.482 22.1916 180.941 21.2389 181.182 20.2219H181.779V23.5796C180.853 24.498 179.759 25.23 178.557 25.7358C177.314 26.2651 175.977 26.5358 174.626 26.5314C172.967 26.5384 171.336 26.1053 169.9 25.2765C168.463 24.4476 167.271 23.2526 166.447 21.8132C165.61 20.3624 165.176 18.7142 165.19 17.0393C165.178 15.379 165.605 13.745 166.426 12.302C167.247 10.859 168.435 9.6581 169.868 8.82027C171.316 7.97498 172.966 7.5378 174.642 7.55519C176.009 7.5447 177.363 7.81553 178.62 8.35084C179.808 8.86136 180.888 9.59309 181.803 10.507L181.771 14.0477Z" stroke="#1D1D1B" stroke-width="2.7" stroke-linecap="round" stroke-linejoin="round"/>
<path d="M189.975 8.17578V8.27922C189.926 8.48638 189.888 8.69626 189.863 8.90778C189.863 9.1226 189.816 9.37721 189.808 9.70343C189.8 10.0296 189.808 10.4036 189.808 10.881V16.1641H189.386L195.027 10.881C195.505 10.4354 195.934 10.0217 196.324 9.63977C196.714 9.25786 196.992 8.95552 197.175 8.73274C197.304 8.61128 197.402 8.46139 197.462 8.29513V8.17578H199.483V8.27922C199.3 8.41448 199.109 8.56565 198.91 8.74069C198.711 8.91573 198.488 9.11465 198.226 9.34538L197.382 10.141L196.587 10.881L194.614 12.7508V11.9551L199.539 22.8953C199.809 23.5554 200.139 24.1892 200.525 24.7889C200.791 25.1637 201.101 25.5056 201.448 25.8074V26.1177C200.655 26.3235 199.825 26.3363 199.026 26.155C198.227 25.9736 197.483 25.6034 196.857 25.0754C196.151 24.488 195.604 23.7329 195.266 22.8794L191.805 14.6046H192.449L189.45 17.3974L189.784 16.7051V23.3965C189.784 23.8739 189.784 24.2638 189.784 24.5741C189.784 24.8844 189.784 25.139 189.84 25.3698C189.864 25.5813 189.902 25.7911 189.951 25.9983V26.1017H185.806V25.9983C185.806 25.7914 185.861 25.5846 185.877 25.3698C185.893 25.1549 185.877 24.9003 185.877 24.5741C185.877 24.2479 185.877 23.8739 185.877 23.3965V10.8651C185.877 10.3877 185.877 9.99782 185.877 9.68751C185.877 9.37721 185.877 9.1226 185.877 8.89186C185.877 8.66113 185.837 8.47017 185.806 8.2633V8.17578H189.975Z" stroke="#1D1D1B" stroke-width="2.7" stroke-linecap="round" stroke-linejoin="round"/>
<path d="M25.7128 11.469H25.0047C24.8678 10.2229 24.4339 9.02779 23.7396 7.98404C23.1118 7.03168 22.2628 6.24546 21.2651 5.69258C20.3226 5.17109 19.2631 4.89733 18.186 4.89693C16.8585 4.9 15.5631 5.30499 14.4703 6.05857C13.2178 6.9647 12.2425 8.20174 11.6537 9.63104C10.8739 11.5128 10.5023 13.5386 10.5636 15.5745C10.5069 17.4341 10.8487 19.2843 11.5662 21.0009C12.0965 22.3208 12.9973 23.4592 14.16 24.2789C15.1939 24.9758 16.414 25.3446 17.6608 25.3371C18.7249 25.3215 19.7698 25.0514 20.7082 24.5495C21.7323 24.0166 22.6283 23.2673 23.3338 22.3535C24.1136 21.3522 24.6723 20.197 24.9728 18.964H25.681V23.0377C24.5632 24.1525 23.239 25.0389 21.7823 25.6474C20.2741 26.2941 18.6493 26.6244 17.0084 26.6181C14.995 26.6295 13.015 26.1048 11.2713 25.0981C9.52774 24.0914 8.08342 22.6388 7.08665 20.8895C6.08058 19.1295 5.56409 17.1322 5.59083 15.1051C5.57376 13.0751 6.10129 11.0776 7.11848 9.32073C8.11334 7.56975 9.55723 6.1158 11.3013 5.10882C13.0453 4.10183 15.0264 3.57825 17.0402 3.59206C18.6806 3.58281 20.3055 3.91049 21.8141 4.5548C23.2686 5.17099 24.5919 6.05949 25.7128 7.17248V11.469Z" fill="white"/>
<path d="M37.6075 7.99207C38.0608 7.90941 38.4901 7.72735 38.8646 7.45898L44.5297 23.4277L45.0707 24.8996C45.206 25.2656 45.3094 25.5282 45.373 25.6953C45.4367 25.8623 45.5003 25.9658 45.5322 26.0294V26.1329H40.9651V25.9499C40.9824 25.8231 40.9824 25.6947 40.9651 25.568C40.9409 25.299 40.8929 25.0328 40.8219 24.7723C40.7424 24.4222 40.5992 23.9767 40.4162 23.4038L35.865 10.3313H36.2788L31.306 23.4277C31.0832 23.9952 30.9161 24.4647 30.8047 24.836C30.717 25.0948 30.6531 25.3611 30.6138 25.6316C30.5976 25.7504 30.5976 25.8708 30.6138 25.9896V26.1408H29.0225V26.0374L29.1895 25.7032C29.2612 25.552 29.3805 25.2895 29.5317 24.9076C29.6828 24.5257 29.8818 24.0483 30.1205 23.4356L36.0242 8.17507C36.5571 8.17318 37.0882 8.1118 37.6075 7.99207ZM40.7901 20.6349V21.7091H31.5844V20.6349H40.7901Z" fill="white"/>
<path d="M60.2518 9.68659C60.8859 10.1719 61.3939 10.8026 61.7332 11.5254C62.0724 12.2482 62.2329 13.042 62.2012 13.8399C62.2302 15.0171 61.8663 16.1705 61.1668 17.1179C60.4578 18.0433 59.5083 18.7561 58.4218 19.1787C57.2532 19.6461 56.0046 19.8813 54.7459 19.8709C54.5072 19.8709 54.2685 19.8709 54.0378 19.8709C53.8071 19.8709 53.5684 19.8311 53.3297 19.7913V18.9957H53.6639C54.5176 19.0117 55.3612 18.809 56.1145 18.4069C56.8223 18.0082 57.3977 17.4107 57.7694 16.6883C58.1776 15.8602 58.3796 14.9458 58.3582 14.0229C58.3806 13.126 58.2153 12.2344 57.8728 11.4052C57.5731 10.7359 57.0689 10.1788 56.4327 9.81389C55.7282 9.42264 54.9307 9.23014 54.1253 9.25694H51.8975L52.3113 8.85116V23.4274C52.3113 23.9048 52.3113 24.2947 52.3113 24.605C52.3113 24.9153 52.3113 25.1699 52.351 25.4007C52.3653 25.6115 52.3919 25.8214 52.4306 26.0292V26.1326H48.333V26.0292C48.333 25.8223 48.3967 25.6155 48.4126 25.4007C48.4285 25.1858 48.4126 24.9312 48.4126 24.605C48.4126 24.2788 48.4126 23.9048 48.4126 23.4274V10.8641C48.4126 10.3868 48.4126 9.99689 48.4126 9.68659C48.4126 9.37628 48.4126 9.12168 48.4126 8.89094C48.4126 8.6602 48.3648 8.46924 48.333 8.26238V8.17485H54.9767C56.855 8.07105 58.7135 8.60365 60.2518 9.68659Z" fill="white"/>
<path d="M76.937 8.17578V9.43291H76.8336C76.637 9.38245 76.4378 9.34261 76.2369 9.31356C76.0379 9.31356 75.7992 9.27378 75.5128 9.26582H74.5023H72.553L72.9667 8.86004V23.4284C72.9667 23.8898 72.9667 24.2718 72.9667 24.5661C72.9667 24.8605 72.9667 25.1151 73.0145 25.3141C73.0622 25.513 73.0702 25.696 73.102 25.8869V26.0142V26.1177H68.9408V26.0142V25.8869C68.9408 25.696 69.0044 25.505 69.0362 25.3141C69.0681 25.1231 69.0362 24.8685 69.084 24.5661C69.1317 24.2638 69.084 23.8898 69.084 23.4284V8.84413L69.4897 9.24991H67.5802H66.5697C66.2939 9.24991 66.0552 9.26582 65.8536 9.29765C65.6501 9.32667 65.4482 9.36651 65.2489 9.41699H65.1455V8.17578H76.937Z" fill="white"/>
<path d="M85.8719 7.99207C86.3245 7.90742 86.7535 7.72554 87.129 7.45898L92.794 23.4277L93.3351 24.8996C93.4703 25.2656 93.5738 25.5282 93.6374 25.6953C93.6846 25.8093 93.7377 25.9209 93.7965 26.0294V26.1329H89.2295V25.9499C89.2427 25.8229 89.2427 25.6949 89.2295 25.568C89.2052 25.299 89.1573 25.0328 89.0863 24.7723C88.9988 24.4222 88.8635 23.9767 88.6805 23.4038L84.1294 10.3313H84.5431L79.5862 23.4277C79.3635 24.0058 79.1964 24.4753 79.085 24.836C78.9973 25.0948 78.9334 25.3611 78.894 25.6316C78.8779 25.7504 78.8779 25.8708 78.894 25.9896V26.1408H77.3027V26.0374L77.4698 25.7032C77.5414 25.552 77.6608 25.2895 77.8119 24.9076C77.9631 24.5257 78.162 24.0483 78.4007 23.4356L84.2885 8.17507C84.8215 8.17318 85.3525 8.1118 85.8719 7.99207ZM89.0545 20.6349V21.7091H79.8488V20.6349H89.0545Z" fill="white"/>
<path d="M100.901 8.17578V8.27922C100.901 8.48608 100.846 8.69295 100.83 8.90778C100.814 9.1226 100.83 9.37721 100.83 9.70343C100.83 10.0296 100.83 10.4036 100.83 10.881V23.4284C100.83 23.9058 100.83 24.2956 100.83 24.6059C100.83 24.9162 100.83 25.1708 100.83 25.4016C100.83 25.6323 100.83 25.8233 100.901 26.0301V26.1336H96.8037V26.0301C96.8037 25.8233 96.8594 25.6164 96.8833 25.4016C96.9071 25.1868 96.8833 24.9321 96.8833 24.6059C96.8833 24.2797 96.8833 23.9058 96.8833 23.4284V10.8651C96.8833 10.3877 96.8833 9.99782 96.8833 9.68751C96.8833 9.37721 96.8833 9.1226 96.8833 8.89186C96.8833 8.66113 96.8355 8.47017 96.8037 8.2633V8.17578H100.901Z" fill="white"/>
<path d="M106.447 8.17455L120.387 21.0959H119.727V10.8638C119.727 10.3865 119.727 9.99658 119.727 9.68628C119.727 9.37598 119.727 9.12137 119.679 8.89063C119.651 8.67896 119.612 8.46908 119.56 8.26207V8.17455H120.96V8.27798C120.96 8.48485 120.896 8.69172 120.88 8.90654C120.864 9.12137 120.88 9.37598 120.88 9.70219C120.88 10.0284 120.88 10.4024 120.88 10.8798V23.6817C120.88 24.0716 120.88 24.4137 120.88 24.7081C120.88 25.0025 120.88 25.2492 120.928 25.464C120.954 25.6857 121.002 25.9043 121.071 26.1164H120.276L106.24 13.2269H106.909V23.4271C106.909 23.9045 106.909 24.2944 106.909 24.6047C106.909 24.915 106.909 25.1696 106.965 25.4003C106.989 25.6119 107.027 25.8217 107.076 26.0289V26.1323H105.691V26.0289C105.73 25.8211 105.757 25.6112 105.771 25.4003C105.771 25.1855 105.771 24.9309 105.771 24.6047C105.771 24.2785 105.771 23.9045 105.771 23.4271V10.6092C105.771 10.2194 105.771 9.87724 105.771 9.58285C105.769 9.31675 105.75 9.05104 105.715 8.7872C105.689 8.56632 105.643 8.34808 105.58 8.13477L106.447 8.17455Z" fill="white"/>
<path d="M144.336 3.5918V3.7191C144.288 3.98166 144.257 4.24423 144.233 4.51475C144.209 4.78527 144.233 5.11149 144.185 5.50135C144.137 5.89122 144.185 6.37657 144.185 6.98126V22.2259C144.233 23.9391 143.829 25.6348 143.015 27.143C142.245 28.4836 141.119 29.585 139.761 30.3256C138.284 31.1262 136.66 31.6188 134.987 31.7737V30.978C135.892 30.6649 136.697 30.1155 137.319 29.3867C138.041 28.5107 138.563 27.4868 138.846 26.3871C139.243 24.8928 139.428 23.35 139.395 21.8042V6.9733C139.395 6.36861 139.395 5.87531 139.395 5.4934C139.395 5.11149 139.395 4.77731 139.347 4.50679C139.3 4.23627 139.292 3.98166 139.244 3.71114V3.5918H144.336Z" fill="white"/>
<path d="M155.833 7.99207C156.286 7.90941 156.716 7.72735 157.09 7.45898L162.755 23.4277L163.296 24.8996C163.432 25.2656 163.535 25.5282 163.599 25.6953C163.662 25.8623 163.726 25.9658 163.758 26.0294V26.1329H159.191V25.9499C159.208 25.8231 159.208 25.6947 159.191 25.568C159.166 25.299 159.119 25.0328 159.048 24.7723C158.968 24.4222 158.825 23.9767 158.642 23.4038L154.091 10.3313H154.504L149.532 23.4277C149.309 24.0058 149.142 24.4753 149.03 24.836C148.943 25.0948 148.879 25.3611 148.839 25.6316C148.823 25.7504 148.823 25.8708 148.839 25.9896V26.1408H147.248V26.0374L147.415 25.7032C147.487 25.552 147.606 25.2895 147.757 24.9076C147.908 24.5257 148.107 24.0483 148.346 23.4356L154.274 8.18302C154.799 8.17676 155.322 8.11273 155.833 7.99207ZM159.016 20.6349V21.7091H149.786V20.6349H159.016Z" fill="white"/>
<path d="M181.771 14.0477H181.174C181.066 13.0209 180.711 12.0356 180.14 11.1754C179.623 10.3917 178.924 9.74467 178.103 9.2897C177.326 8.85991 176.453 8.63536 175.565 8.63727C174.469 8.63573 173.4 8.97189 172.502 9.6C171.469 10.3436 170.665 11.3603 170.178 12.5359C169.538 14.0854 169.234 15.7534 169.287 17.4292C169.232 18.9593 169.503 20.4838 170.083 21.9007C170.523 22.9822 171.266 23.9133 172.223 24.5821C173.074 25.1541 174.078 25.4564 175.104 25.4493C175.988 25.4482 176.859 25.2325 177.642 24.8208C178.499 24.3893 179.249 23.7723 179.838 23.0146C180.482 22.1916 180.941 21.2389 181.182 20.2219H181.779V23.5796C180.853 24.498 179.759 25.23 178.557 25.7358C177.314 26.2651 175.977 26.5358 174.626 26.5314C172.967 26.5384 171.336 26.1053 169.9 25.2765C168.463 24.4476 167.271 23.2526 166.447 21.8132C165.61 20.3624 165.176 18.7142 165.19 17.0393C165.178 15.379 165.605 13.745 166.426 12.302C167.247 10.859 168.435 9.6581 169.868 8.82027C171.316 7.97498 172.966 7.5378 174.642 7.55519C176.009 7.5447 177.363 7.81553 178.62 8.35084C179.808 8.86136 180.888 9.59309 181.803 10.507L181.771 14.0477Z" fill="white"/>
<path d="M189.975 8.17578V8.27922C189.926 8.48638 189.888 8.69626 189.863 8.90778C189.863 9.1226 189.816 9.37721 189.808 9.70343C189.8 10.0296 189.808 10.4036 189.808 10.881V16.1641H189.386L195.027 10.881C195.505 10.4354 195.934 10.0217 196.324 9.63977C196.714 9.25786 196.992 8.95552 197.175 8.73274C197.304 8.61128 197.402 8.46139 197.462 8.29513V8.17578H199.483V8.27922C199.3 8.41448 199.109 8.56565 198.91 8.74069C198.711 8.91573 198.488 9.11465 198.226 9.34538L197.382 10.141L196.587 10.881L194.614 12.7508V11.9551L199.539 22.8953C199.809 23.5554 200.139 24.1892 200.525 24.7889C200.791 25.1637 201.101 25.5056 201.448 25.8074V26.1177C200.655 26.3235 199.825 26.3363 199.026 26.155C198.227 25.9736 197.483 25.6034 196.857 25.0754C196.151 24.488 195.604 23.7329 195.266 22.8794L191.805 14.6046H192.449L189.45 17.3974L189.784 16.7051V23.3965C189.784 23.8739 189.784 24.2638 189.784 24.5741C189.784 24.8844 189.784 25.139 189.84 25.3698C189.864 25.5813 189.902 25.7911 189.951 25.9983V26.1017H185.806V25.9983C185.806 25.7914 185.861 25.5846 185.877 25.3698C185.893 25.1549 185.877 24.9003 185.877 24.5741C185.877 24.2479 185.877 23.8739 185.877 23.3965V10.8651C185.877 10.3877 185.877 9.99782 185.877 9.68751C185.877 9.37721 185.877 9.1226 185.877 8.89186C185.877 8.66113 185.837 8.47017 185.806 8.2633V8.17578H189.975Z" fill="white"/>
</g>
<defs>
<filter id="filter0_d_4587_7896" x="0" y="0" width="208" height="40" filterUnits="userSpaceOnUse" color-interpolation-filters="sRGB">
<feFlood flood-opacity="0" result="BackgroundImageFix"/>
<feColorMatrix in="SourceAlpha" type="matrix" values="0 0 0 0 0 0 0 0 0 0 0 0 0 0 0 0 0 0 127 0" result="hardAlpha"/>
<feOffset dy="2"/>
<feGaussianBlur stdDeviation="2"/>
<feComposite in2="hardAlpha" operator="out"/>
<feColorMatrix type="matrix" values="0 0 0 0 0.0941176 0 0 0 0 0.0117647 0 0 0 0 0.00784314 0 0 0 0.75 0"/>
<feBlend mode="normal" in2="BackgroundImageFix" result="effect1_dropShadow_4587_7896"/>
<feBlend mode="normal" in="SourceGraphic" in2="effect1_dropShadow_4587_7896" result="shape"/>
</filter>
</defs>
</svg>
