<svg width="199" height="32" viewBox="0 0 199 32" fill="none" xmlns="http://www.w3.org/2000/svg">
<path d="M21.7133 9.46825H21.0051C20.8682 8.22215 20.4344 7.02706 19.7401 5.98331C19.1123 5.03094 18.2633 4.24473 17.2656 3.69184C16.3231 3.17036 15.2636 2.8966 14.1864 2.89619C12.859 2.89927 11.5636 3.30426 10.4708 4.05784C9.21833 4.96397 8.24303 6.20101 7.65416 7.6303C6.87436 9.51202 6.50282 11.5378 6.56412 13.5738C6.5074 15.4334 6.84922 17.2836 7.56664 19.0001C8.09704 20.3201 8.99782 21.4585 10.1605 22.2782C11.1944 22.975 12.4145 23.3438 13.6613 23.3364C14.7254 23.3208 15.7703 23.0507 16.7086 22.5487C17.7328 22.0159 18.6288 21.2665 19.3343 20.3527C20.1141 19.3515 20.6728 18.1963 20.9733 16.9633H21.6815V21.037C20.5637 22.1518 19.2394 23.0382 17.7828 23.6467C16.2746 24.2933 14.6498 24.6237 13.0089 24.6174C10.9955 24.6287 9.01544 24.1041 7.27183 23.0974C5.52823 22.0906 4.08391 20.6381 3.08714 18.8887C2.08107 17.1287 1.56458 15.1315 1.59132 13.1044C1.57425 11.0743 2.10178 9.07688 3.11897 7.32C4.11383 5.56902 5.55772 4.11507 7.30176 3.10809C9.0458 2.1011 11.0269 1.57752 13.0407 1.59133C14.6811 1.58208 16.306 1.90975 17.8146 2.55407C19.2691 3.17026 20.5924 4.05876 21.7133 5.17175V9.46825Z" fill="white"/>
<path d="M33.608 5.99121C34.0613 5.90856 34.4906 5.7265 34.8651 5.45813L40.5301 21.4268L41.0712 22.8988C41.2064 23.2648 41.3099 23.5273 41.3735 23.6944C41.4372 23.8615 41.5008 23.9649 41.5327 24.0286V24.132H36.9656V23.949C36.9829 23.8223 36.9829 23.6938 36.9656 23.5671C36.9413 23.2982 36.8934 23.0319 36.8224 22.7714C36.7429 22.4214 36.5996 21.9758 36.4166 21.4029L31.8655 8.33042H32.2793L27.3065 21.4268C27.0837 21.9944 26.9166 22.4638 26.8052 22.8351C26.7175 23.094 26.6536 23.3603 26.6142 23.6307C26.5981 23.7495 26.5981 23.87 26.6142 23.9888V24.14H25.0229V24.0365L25.19 23.7024C25.2616 23.5512 25.381 23.2886 25.5322 22.9067C25.6833 22.5248 25.8822 22.0474 26.1209 21.4348L32.0247 6.17421C32.5576 6.17232 33.0887 6.11094 33.608 5.99121ZM36.7906 18.6341V19.7082H27.5849V18.6341H36.7906Z" fill="white"/>
<path d="M56.2523 7.68598C56.8864 8.17132 57.3944 8.80198 57.7337 9.52481C58.0729 10.2476 58.2334 11.0414 58.2017 11.8393C58.2307 13.0165 57.8668 14.1699 57.1673 15.1173C56.4583 16.0426 55.5088 16.7555 54.4223 17.1781C53.2537 17.6455 52.0051 17.8806 50.7464 17.8703C50.5077 17.8703 50.269 17.8703 50.0383 17.8703C49.8076 17.8703 49.5689 17.8305 49.3302 17.7907V16.9951H49.6643C50.5181 17.0111 51.3617 16.8084 52.1149 16.4063C52.8228 16.0076 53.3982 15.4101 53.7699 14.6877C54.1781 13.8596 54.38 12.9452 54.3587 12.0223C54.3811 11.1254 54.2158 10.2338 53.8733 9.40458C53.5736 8.73525 53.0694 8.17815 52.4332 7.81328C51.7287 7.42203 50.9312 7.22953 50.1258 7.25633H47.898L48.3117 6.85055V21.4268C48.3117 21.9042 48.3117 22.2941 48.3117 22.6044C48.3117 22.9147 48.3117 23.1693 48.3515 23.4C48.3658 23.6109 48.3923 23.8208 48.4311 24.0286V24.132H44.3335V24.0286C44.3335 23.8217 44.3971 23.6149 44.4131 23.4C44.429 23.1852 44.4131 22.9306 44.4131 22.6044C44.4131 22.2782 44.4131 21.9042 44.4131 21.4268V8.86354C44.4131 8.38615 44.4131 7.99628 44.4131 7.68598C44.4131 7.37567 44.4131 7.12107 44.4131 6.89033C44.4131 6.65959 44.3653 6.46863 44.3335 6.26177V6.17424H50.9772C52.8555 6.07044 54.714 6.60304 56.2523 7.68598Z" fill="white"/>
<path d="M72.937 6.17432V7.43144H72.8336C72.637 7.38098 72.4378 7.34114 72.2369 7.31209C72.0379 7.31209 71.7992 7.27231 71.5128 7.26436H70.5023H68.553L68.9667 6.85857V21.4269C68.9667 21.8884 68.9667 22.2703 68.9667 22.5647C68.9667 22.8591 68.9667 23.1137 69.0145 23.3126C69.0622 23.5115 69.0702 23.6945 69.102 23.8855V24.0128V24.1162H64.9408V24.0128V23.8855C64.9408 23.6945 65.0044 23.5035 65.0362 23.3126C65.0681 23.1216 65.0362 22.867 65.084 22.5647C65.1317 22.2623 65.084 21.8884 65.084 21.4269V6.84266L65.4897 7.24844H63.5802H62.5697C62.2939 7.24844 62.0552 7.26436 61.8536 7.29618C61.6501 7.3252 61.4482 7.36504 61.2489 7.41553H61.1455V6.17432H72.937Z" fill="white"/>
<path d="M81.8724 5.99121C82.325 5.90657 82.754 5.72468 83.1295 5.45813L88.7945 21.4268L89.3355 22.8988C89.4708 23.2648 89.5742 23.5273 89.6379 23.6944C89.6851 23.8085 89.7382 23.92 89.797 24.0286V24.132H85.23V23.949C85.2432 23.822 85.2432 23.6941 85.23 23.5671C85.2057 23.2982 85.1578 23.0319 85.0868 22.7714C84.9993 22.4214 84.864 21.9758 84.681 21.4029L80.1299 8.33042H80.5436L75.5867 21.4268C75.364 22.005 75.1969 22.4744 75.0855 22.8351C74.9978 23.094 74.9339 23.3603 74.8945 23.6307C74.8784 23.7495 74.8784 23.87 74.8945 23.9888V24.14H73.3032V24.0365L73.4703 23.7024C73.5419 23.5512 73.6613 23.2886 73.8124 22.9067C73.9636 22.5248 74.1625 22.0474 74.4012 21.4348L80.289 6.17421C80.822 6.17232 81.353 6.11094 81.8724 5.99121ZM85.055 18.6341V19.7082H75.8493V18.6341H85.055Z" fill="white"/>
<path d="M96.9023 6.17432V6.27775C96.9023 6.48462 96.8466 6.69149 96.8307 6.90631C96.8148 7.12114 96.8307 7.37575 96.8307 7.70196C96.8307 8.02818 96.8307 8.40213 96.8307 8.87952V21.4269C96.8307 21.9043 96.8307 22.2942 96.8307 22.6045C96.8307 22.9148 96.8307 23.1694 96.8307 23.4001C96.8307 23.6308 96.8307 23.8218 96.9023 24.0287V24.1321H92.8047V24.0287C92.8047 23.8218 92.8604 23.6149 92.8843 23.4001C92.9081 23.1853 92.8843 22.9307 92.8843 22.6045C92.8843 22.2782 92.8843 21.9043 92.8843 21.4269V8.86361C92.8843 8.38622 92.8843 7.99635 92.8843 7.68605C92.8843 7.37575 92.8843 7.12114 92.8843 6.8904C92.8843 6.65966 92.8365 6.46871 92.8047 6.26184V6.17432H96.9023Z" fill="white"/>
<path d="M102.448 6.1743L116.388 19.0956H115.727V8.8636C115.727 8.38621 115.727 7.99634 115.727 7.68604C115.727 7.37573 115.727 7.12113 115.679 6.89039C115.652 6.67872 115.612 6.46884 115.56 6.26183V6.1743H116.96V6.27774C116.96 6.48461 116.897 6.69148 116.881 6.9063C116.865 7.12113 116.881 7.37573 116.881 7.70195C116.881 8.02817 116.881 8.40212 116.881 8.87951V21.6815C116.881 22.0714 116.881 22.4135 116.881 22.7079C116.881 23.0023 116.881 23.2489 116.929 23.4638C116.954 23.6855 117.002 23.9041 117.072 24.1162H116.276L102.241 11.2267H102.909V21.4269C102.909 21.9043 102.909 22.2941 102.909 22.6045C102.909 22.9148 102.909 23.1694 102.965 23.4001C102.99 23.6116 103.027 23.8215 103.076 24.0287V24.1321H101.692V24.0287C101.731 23.8209 101.757 23.611 101.772 23.4001C101.772 23.1853 101.772 22.9307 101.772 22.6045C101.772 22.2782 101.772 21.9043 101.772 21.4269V8.60899C101.772 8.21912 101.772 7.87699 101.772 7.5826C101.769 7.3165 101.751 7.0508 101.716 6.78695C101.689 6.56608 101.644 6.34783 101.581 6.13452L102.448 6.1743Z" fill="white"/>
<path d="M140.337 1.59131V1.71861C140.289 1.98118 140.257 2.24374 140.233 2.51426C140.209 2.78478 140.233 3.111 140.185 3.50087C140.138 3.89073 140.185 4.37608 140.185 4.98077V20.2254C140.233 21.9386 139.83 23.6343 139.016 25.1425C138.245 26.4831 137.119 27.5845 135.762 28.3251C134.285 29.1257 132.661 29.6183 130.988 29.7732V28.9775C131.893 28.6644 132.698 28.115 133.319 27.3862C134.042 26.5102 134.563 25.4863 134.847 24.3866C135.244 22.8923 135.428 21.3495 135.396 19.8037V4.97282C135.396 4.36812 135.396 3.87482 135.396 3.49291C135.396 3.111 135.396 2.77683 135.348 2.5063C135.3 2.23578 135.292 1.98118 135.245 1.71066V1.59131H140.337Z" fill="white"/>
<path d="M151.834 5.99121C152.287 5.90856 152.716 5.7265 153.091 5.45813L158.756 21.4268L159.297 22.8988C159.432 23.2648 159.535 23.5273 159.599 23.6944C159.663 23.8615 159.726 23.9649 159.758 24.0286V24.132H155.191V23.949C155.208 23.8223 155.208 23.6938 155.191 23.5671C155.167 23.2982 155.119 23.0319 155.048 22.7714C154.968 22.4214 154.825 21.9758 154.642 21.4029L150.091 8.33042H150.505L145.532 21.4268C145.309 22.005 145.142 22.4744 145.031 22.8351C144.943 23.094 144.879 23.3603 144.84 23.6307C144.824 23.7495 144.824 23.87 144.84 23.9888V24.14H143.249V24.0365L143.416 23.7024C143.487 23.5512 143.607 23.2886 143.758 22.9067C143.909 22.5248 144.108 22.0474 144.347 21.4348L150.274 6.18217C150.799 6.17591 151.322 6.11187 151.834 5.99121ZM155.016 18.6341V19.7082H145.787V18.6341H155.016Z" fill="white"/>
<path d="M177.772 12.0462H177.175C177.066 11.0195 176.711 10.0341 176.141 9.17392C175.624 8.39019 174.925 7.7432 174.104 7.28824C173.327 6.85845 172.453 6.63389 171.566 6.6358C170.47 6.63426 169.4 6.97043 168.502 7.59854C167.47 8.34217 166.665 9.35888 166.179 10.5345C165.538 12.0839 165.235 13.7519 165.288 15.4277C165.232 16.9579 165.503 18.4823 166.084 19.8993C166.524 20.9807 167.267 21.9119 168.224 22.5806C169.075 23.1527 170.079 23.4549 171.104 23.4479C171.988 23.4468 172.859 23.2311 173.642 22.8193C174.499 22.3878 175.249 21.7708 175.838 21.0132C176.483 20.1901 176.941 19.2374 177.183 18.2205H177.78V21.5781C176.853 22.4965 175.759 23.2285 174.557 23.7343C173.315 24.2636 171.977 24.5344 170.627 24.5299C168.968 24.5369 167.337 24.1039 165.9 23.275C164.463 22.4462 163.272 21.2511 162.447 19.8117C161.61 18.3609 161.176 16.7128 161.19 15.0379C161.179 13.3775 161.605 11.7435 162.427 10.3005C163.248 8.85758 164.435 7.65664 165.869 6.8188C167.316 5.97352 168.966 5.53633 170.643 5.55372C172.009 5.54323 173.363 5.81407 174.621 6.34937C175.809 6.8599 176.889 7.59162 177.803 8.50558L177.772 12.0462Z" fill="white"/>
<path d="M185.975 6.17432V6.27775C185.926 6.48492 185.888 6.6948 185.863 6.90631C185.863 7.12114 185.816 7.37575 185.808 7.70196C185.8 8.02818 185.808 8.40213 185.808 8.87952V14.1626H185.386L191.027 8.87952C191.505 8.43396 191.934 8.02022 192.324 7.63831C192.714 7.2564 192.992 6.95405 193.175 6.73127C193.304 6.60981 193.402 6.45993 193.462 6.29366V6.17432H195.483V6.27775C195.3 6.41301 195.109 6.56418 194.91 6.73923C194.711 6.91427 194.488 7.11318 194.226 7.34392L193.382 8.13957L192.587 8.87952L190.614 10.7493V9.95365L195.539 20.8938C195.809 21.5539 196.139 22.1878 196.525 22.7875C196.791 23.1623 197.101 23.5041 197.448 23.8059V24.1162C196.655 24.3221 195.825 24.3349 195.026 24.1535C194.227 23.9721 193.483 23.6019 192.857 23.0739C192.151 22.4865 191.604 21.7315 191.266 20.8779L187.805 12.6032H188.449L185.45 15.3959L185.784 14.7037V21.3951C185.784 21.8725 185.784 22.2623 185.784 22.5726C185.784 22.8829 185.784 23.1375 185.84 23.3683C185.864 23.5798 185.902 23.7897 185.951 23.9968V24.1003H181.806V23.9968C181.806 23.79 181.861 23.5831 181.877 23.3683C181.893 23.1535 181.877 22.8989 181.877 22.5726C181.877 22.2464 181.877 21.8725 181.877 21.3951V8.86361C181.877 8.38622 181.877 7.99635 181.877 7.68605C181.877 7.37575 181.877 7.12114 181.877 6.8904C181.877 6.65966 181.837 6.46871 181.806 6.26184V6.17432H185.975Z" fill="white"/>
<path d="M21.7133 9.46825H21.0051C20.8682 8.22215 20.4344 7.02706 19.7401 5.98331C19.1123 5.03094 18.2633 4.24473 17.2656 3.69184C16.3231 3.17036 15.2636 2.8966 14.1864 2.89619C12.859 2.89927 11.5636 3.30426 10.4708 4.05784C9.21833 4.96397 8.24303 6.20101 7.65416 7.6303C6.87436 9.51202 6.50282 11.5378 6.56412 13.5738C6.5074 15.4334 6.84922 17.2836 7.56664 19.0001C8.09704 20.3201 8.99782 21.4585 10.1605 22.2782C11.1944 22.975 12.4145 23.3438 13.6613 23.3364C14.7254 23.3208 15.7703 23.0507 16.7086 22.5487C17.7328 22.0159 18.6288 21.2665 19.3343 20.3527C20.1141 19.3515 20.6728 18.1963 20.9733 16.9633H21.6815V21.037C20.5637 22.1518 19.2394 23.0382 17.7828 23.6467C16.2746 24.2933 14.6498 24.6237 13.0089 24.6174C10.9955 24.6287 9.01544 24.1041 7.27183 23.0974C5.52823 22.0906 4.08391 20.6381 3.08714 18.8887C2.08107 17.1287 1.56458 15.1315 1.59132 13.1044C1.57425 11.0743 2.10178 9.07688 3.11897 7.32C4.11383 5.56902 5.55772 4.11507 7.30176 3.10809C9.0458 2.1011 11.0269 1.57752 13.0407 1.59133C14.6811 1.58208 16.306 1.90975 17.8146 2.55407C19.2691 3.17026 20.5924 4.05876 21.7133 5.17175V9.46825Z" stroke="#1D1D1B" stroke-width="2.7" stroke-linecap="round" stroke-linejoin="round"/>
<path d="M33.608 5.99121C34.0613 5.90856 34.4906 5.7265 34.8651 5.45813L40.5301 21.4268L41.0712 22.8988C41.2064 23.2648 41.3099 23.5273 41.3735 23.6944C41.4372 23.8615 41.5008 23.9649 41.5327 24.0286V24.132H36.9656V23.949C36.9829 23.8223 36.9829 23.6938 36.9656 23.5671C36.9413 23.2982 36.8934 23.0319 36.8224 22.7714C36.7429 22.4214 36.5996 21.9758 36.4166 21.4029L31.8655 8.33042H32.2793L27.3065 21.4268C27.0837 21.9944 26.9166 22.4638 26.8052 22.8351C26.7175 23.094 26.6536 23.3603 26.6142 23.6307C26.5981 23.7495 26.5981 23.87 26.6142 23.9888V24.14H25.0229V24.0365L25.19 23.7024C25.2616 23.5512 25.381 23.2886 25.5322 22.9067C25.6833 22.5248 25.8822 22.0474 26.1209 21.4348L32.0247 6.17421C32.5576 6.17232 33.0887 6.11094 33.608 5.99121ZM36.7906 18.6341V19.7082H27.5849V18.6341H36.7906Z" stroke="#1D1D1B" stroke-width="2.7" stroke-linecap="round" stroke-linejoin="round"/>
<path d="M56.2523 7.68598C56.8864 8.17132 57.3944 8.80198 57.7337 9.52481C58.0729 10.2476 58.2334 11.0414 58.2017 11.8393C58.2307 13.0165 57.8668 14.1699 57.1673 15.1173C56.4583 16.0426 55.5088 16.7555 54.4223 17.1781C53.2537 17.6455 52.0051 17.8806 50.7464 17.8703C50.5077 17.8703 50.269 17.8703 50.0383 17.8703C49.8076 17.8703 49.5689 17.8305 49.3302 17.7907V16.9951H49.6643C50.5181 17.0111 51.3617 16.8084 52.1149 16.4063C52.8228 16.0076 53.3982 15.4101 53.7699 14.6877C54.1781 13.8596 54.38 12.9452 54.3587 12.0223C54.3811 11.1254 54.2158 10.2338 53.8733 9.40458C53.5736 8.73525 53.0694 8.17815 52.4332 7.81328C51.7287 7.42203 50.9312 7.22953 50.1258 7.25633H47.898L48.3117 6.85055V21.4268C48.3117 21.9042 48.3117 22.2941 48.3117 22.6044C48.3117 22.9147 48.3117 23.1693 48.3515 23.4C48.3658 23.6109 48.3923 23.8208 48.4311 24.0286V24.132H44.3335V24.0286C44.3335 23.8217 44.3971 23.6149 44.4131 23.4C44.429 23.1852 44.4131 22.9306 44.4131 22.6044C44.4131 22.2782 44.4131 21.9042 44.4131 21.4268V8.86354C44.4131 8.38615 44.4131 7.99628 44.4131 7.68598C44.4131 7.37567 44.4131 7.12107 44.4131 6.89033C44.4131 6.65959 44.3653 6.46863 44.3335 6.26177V6.17424H50.9772C52.8555 6.07044 54.714 6.60304 56.2523 7.68598Z" stroke="#1D1D1B" stroke-width="2.7" stroke-linecap="round" stroke-linejoin="round"/>
<path d="M72.937 6.17432V7.43144H72.8336C72.637 7.38098 72.4378 7.34114 72.2369 7.31209C72.0379 7.31209 71.7992 7.27231 71.5128 7.26436H70.5023H68.553L68.9667 6.85857V21.4269C68.9667 21.8884 68.9667 22.2703 68.9667 22.5647C68.9667 22.8591 68.9667 23.1137 69.0145 23.3126C69.0622 23.5115 69.0702 23.6945 69.102 23.8855V24.0128V24.1162H64.9408V24.0128V23.8855C64.9408 23.6945 65.0044 23.5035 65.0362 23.3126C65.0681 23.1216 65.0362 22.867 65.084 22.5647C65.1317 22.2623 65.084 21.8884 65.084 21.4269V6.84266L65.4897 7.24844H63.5802H62.5697C62.2939 7.24844 62.0552 7.26436 61.8536 7.29618C61.6501 7.3252 61.4482 7.36504 61.2489 7.41553H61.1455V6.17432H72.937Z" stroke="#1D1D1B" stroke-width="2.7" stroke-linecap="round" stroke-linejoin="round"/>
<path d="M81.8724 5.99121C82.325 5.90657 82.754 5.72468 83.1295 5.45813L88.7945 21.4268L89.3355 22.8988C89.4708 23.2648 89.5742 23.5273 89.6379 23.6944C89.6851 23.8085 89.7382 23.92 89.797 24.0286V24.132H85.23V23.949C85.2432 23.822 85.2432 23.6941 85.23 23.5671C85.2057 23.2982 85.1578 23.0319 85.0868 22.7714C84.9993 22.4214 84.864 21.9758 84.681 21.4029L80.1299 8.33042H80.5436L75.5867 21.4268C75.364 22.005 75.1969 22.4744 75.0855 22.8351C74.9978 23.094 74.9339 23.3603 74.8945 23.6307C74.8784 23.7495 74.8784 23.87 74.8945 23.9888V24.14H73.3032V24.0365L73.4703 23.7024C73.5419 23.5512 73.6613 23.2886 73.8124 22.9067C73.9636 22.5248 74.1625 22.0474 74.4012 21.4348L80.289 6.17421C80.822 6.17232 81.353 6.11094 81.8724 5.99121ZM85.055 18.6341V19.7082H75.8493V18.6341H85.055Z" stroke="#1D1D1B" stroke-width="2.7" stroke-linecap="round" stroke-linejoin="round"/>
<path d="M96.9023 6.17432V6.27775C96.9023 6.48462 96.8466 6.69149 96.8307 6.90631C96.8148 7.12114 96.8307 7.37575 96.8307 7.70196C96.8307 8.02818 96.8307 8.40213 96.8307 8.87952V21.4269C96.8307 21.9043 96.8307 22.2942 96.8307 22.6045C96.8307 22.9148 96.8307 23.1694 96.8307 23.4001C96.8307 23.6308 96.8307 23.8218 96.9023 24.0287V24.1321H92.8047V24.0287C92.8047 23.8218 92.8604 23.6149 92.8843 23.4001C92.9081 23.1853 92.8843 22.9307 92.8843 22.6045C92.8843 22.2782 92.8843 21.9043 92.8843 21.4269V8.86361C92.8843 8.38622 92.8843 7.99635 92.8843 7.68605C92.8843 7.37575 92.8843 7.12114 92.8843 6.8904C92.8843 6.65966 92.8365 6.46871 92.8047 6.26184V6.17432H96.9023Z" stroke="#1D1D1B" stroke-width="2.7" stroke-linecap="round" stroke-linejoin="round"/>
<path d="M102.448 6.1743L116.388 19.0956H115.727V8.8636C115.727 8.38621 115.727 7.99634 115.727 7.68604C115.727 7.37573 115.727 7.12113 115.679 6.89039C115.652 6.67872 115.612 6.46884 115.56 6.26183V6.1743H116.96V6.27774C116.96 6.48461 116.897 6.69148 116.881 6.9063C116.865 7.12113 116.881 7.37573 116.881 7.70195C116.881 8.02817 116.881 8.40212 116.881 8.87951V21.6815C116.881 22.0714 116.881 22.4135 116.881 22.7079C116.881 23.0023 116.881 23.2489 116.929 23.4638C116.954 23.6855 117.002 23.9041 117.072 24.1162H116.276L102.241 11.2267H102.909V21.4269C102.909 21.9043 102.909 22.2941 102.909 22.6045C102.909 22.9148 102.909 23.1694 102.965 23.4001C102.99 23.6116 103.027 23.8215 103.076 24.0287V24.1321H101.692V24.0287C101.731 23.8209 101.757 23.611 101.772 23.4001C101.772 23.1853 101.772 22.9307 101.772 22.6045C101.772 22.2782 101.772 21.9043 101.772 21.4269V8.60899C101.772 8.21912 101.772 7.87699 101.772 7.5826C101.769 7.3165 101.751 7.0508 101.716 6.78695C101.689 6.56608 101.644 6.34783 101.581 6.13452L102.448 6.1743Z" stroke="#1D1D1B" stroke-width="2.7" stroke-linecap="round" stroke-linejoin="round"/>
<path d="M140.337 1.59131V1.71861C140.289 1.98118 140.257 2.24374 140.233 2.51426C140.209 2.78478 140.233 3.111 140.185 3.50087C140.138 3.89073 140.185 4.37608 140.185 4.98077V20.2254C140.233 21.9386 139.83 23.6343 139.016 25.1425C138.245 26.4831 137.119 27.5845 135.762 28.3251C134.285 29.1257 132.661 29.6183 130.988 29.7732V28.9775C131.893 28.6644 132.698 28.115 133.319 27.3862C134.042 26.5102 134.563 25.4863 134.847 24.3866C135.244 22.8923 135.428 21.3495 135.396 19.8037V4.97282C135.396 4.36812 135.396 3.87482 135.396 3.49291C135.396 3.111 135.396 2.77683 135.348 2.5063C135.3 2.23578 135.292 1.98118 135.245 1.71066V1.59131H140.337Z" stroke="#1D1D1B" stroke-width="2.7" stroke-linecap="round" stroke-linejoin="round"/>
<path d="M151.834 5.99121C152.287 5.90856 152.716 5.7265 153.091 5.45813L158.756 21.4268L159.297 22.8988C159.432 23.2648 159.535 23.5273 159.599 23.6944C159.663 23.8615 159.726 23.9649 159.758 24.0286V24.132H155.191V23.949C155.208 23.8223 155.208 23.6938 155.191 23.5671C155.167 23.2982 155.119 23.0319 155.048 22.7714C154.968 22.4214 154.825 21.9758 154.642 21.4029L150.091 8.33042H150.505L145.532 21.4268C145.309 22.005 145.142 22.4744 145.031 22.8351C144.943 23.094 144.879 23.3603 144.84 23.6307C144.824 23.7495 144.824 23.87 144.84 23.9888V24.14H143.249V24.0365L143.416 23.7024C143.487 23.5512 143.607 23.2886 143.758 22.9067C143.909 22.5248 144.108 22.0474 144.347 21.4348L150.274 6.18217C150.799 6.17591 151.322 6.11187 151.834 5.99121ZM155.016 18.6341V19.7082H145.787V18.6341H155.016Z" stroke="#1D1D1B" stroke-width="2.7" stroke-linecap="round" stroke-linejoin="round"/>
<path d="M177.772 12.0462H177.175C177.066 11.0195 176.711 10.0341 176.141 9.17392C175.624 8.39019 174.925 7.7432 174.104 7.28824C173.327 6.85845 172.453 6.63389 171.566 6.6358C170.47 6.63426 169.4 6.97043 168.502 7.59854C167.47 8.34217 166.665 9.35888 166.179 10.5345C165.538 12.0839 165.235 13.7519 165.288 15.4277C165.232 16.9579 165.503 18.4823 166.084 19.8993C166.524 20.9807 167.267 21.9119 168.224 22.5806C169.075 23.1527 170.079 23.4549 171.104 23.4479C171.988 23.4468 172.859 23.2311 173.642 22.8193C174.499 22.3878 175.249 21.7708 175.838 21.0132C176.483 20.1901 176.941 19.2374 177.183 18.2205H177.78V21.5781C176.853 22.4965 175.759 23.2285 174.557 23.7343C173.315 24.2636 171.977 24.5344 170.627 24.5299C168.968 24.5369 167.337 24.1039 165.9 23.275C164.463 22.4462 163.272 21.2511 162.447 19.8117C161.61 18.3609 161.176 16.7128 161.19 15.0379C161.179 13.3775 161.605 11.7435 162.427 10.3005C163.248 8.85758 164.435 7.65664 165.869 6.8188C167.316 5.97352 168.966 5.53633 170.643 5.55372C172.009 5.54323 173.363 5.81407 174.621 6.34937C175.809 6.8599 176.889 7.59162 177.803 8.50558L177.772 12.0462Z" stroke="#1D1D1B" stroke-width="2.7" stroke-linecap="round" stroke-linejoin="round"/>
<path d="M185.975 6.17432V6.27775C185.926 6.48492 185.888 6.6948 185.863 6.90631C185.863 7.12114 185.816 7.37575 185.808 7.70196C185.8 8.02818 185.808 8.40213 185.808 8.87952V14.1626H185.386L191.027 8.87952C191.505 8.43396 191.934 8.02022 192.324 7.63831C192.714 7.2564 192.992 6.95405 193.175 6.73127C193.304 6.60981 193.402 6.45993 193.462 6.29366V6.17432H195.483V6.27775C195.3 6.41301 195.109 6.56418 194.91 6.73923C194.711 6.91427 194.488 7.11318 194.226 7.34392L193.382 8.13957L192.587 8.87952L190.614 10.7493V9.95365L195.539 20.8938C195.809 21.5539 196.139 22.1878 196.525 22.7875C196.791 23.1623 197.101 23.5041 197.448 23.8059V24.1162C196.655 24.3221 195.825 24.3349 195.026 24.1535C194.227 23.9721 193.483 23.6019 192.857 23.0739C192.151 22.4865 191.604 21.7315 191.266 20.8779L187.805 12.6032H188.449L185.45 15.3959L185.784 14.7037V21.3951C185.784 21.8725 185.784 22.2623 185.784 22.5726C185.784 22.8829 185.784 23.1375 185.84 23.3683C185.864 23.5798 185.902 23.7897 185.951 23.9968V24.1003H181.806V23.9968C181.806 23.79 181.861 23.5831 181.877 23.3683C181.893 23.1535 181.877 22.8989 181.877 22.5726C181.877 22.2464 181.877 21.8725 181.877 21.3951V8.86361C181.877 8.38622 181.877 7.99635 181.877 7.68605C181.877 7.37575 181.877 7.12114 181.877 6.8904C181.877 6.65966 181.837 6.46871 181.806 6.26184V6.17432H185.975Z" stroke="#1D1D1B" stroke-width="2.7" stroke-linecap="round" stroke-linejoin="round"/>
<path d="M21.7133 9.46825H21.0051C20.8682 8.22215 20.4344 7.02706 19.7401 5.98331C19.1123 5.03094 18.2633 4.24473 17.2656 3.69184C16.3231 3.17036 15.2636 2.8966 14.1864 2.89619C12.859 2.89927 11.5636 3.30426 10.4708 4.05784C9.21833 4.96397 8.24303 6.20101 7.65416 7.6303C6.87436 9.51202 6.50282 11.5378 6.56412 13.5738C6.5074 15.4334 6.84922 17.2836 7.56664 19.0001C8.09704 20.3201 8.99782 21.4585 10.1605 22.2782C11.1944 22.975 12.4145 23.3438 13.6613 23.3364C14.7254 23.3208 15.7703 23.0507 16.7086 22.5487C17.7328 22.0159 18.6288 21.2665 19.3343 20.3527C20.1141 19.3515 20.6728 18.1963 20.9733 16.9633H21.6815V21.037C20.5637 22.1518 19.2394 23.0382 17.7828 23.6467C16.2746 24.2933 14.6498 24.6237 13.0089 24.6174C10.9955 24.6287 9.01544 24.1041 7.27183 23.0974C5.52823 22.0906 4.08391 20.6381 3.08714 18.8887C2.08107 17.1287 1.56458 15.1315 1.59132 13.1044C1.57425 11.0743 2.10178 9.07688 3.11897 7.32C4.11383 5.56902 5.55772 4.11507 7.30176 3.10809C9.0458 2.1011 11.0269 1.57752 13.0407 1.59133C14.6811 1.58208 16.306 1.90975 17.8146 2.55407C19.2691 3.17026 20.5924 4.05876 21.7133 5.17175V9.46825Z" fill="white"/>
<path d="M33.608 5.99121C34.0613 5.90856 34.4906 5.7265 34.8651 5.45813L40.5301 21.4268L41.0712 22.8988C41.2064 23.2648 41.3099 23.5273 41.3735 23.6944C41.4372 23.8615 41.5008 23.9649 41.5327 24.0286V24.132H36.9656V23.949C36.9829 23.8223 36.9829 23.6938 36.9656 23.5671C36.9413 23.2982 36.8934 23.0319 36.8224 22.7714C36.7429 22.4214 36.5996 21.9758 36.4166 21.4029L31.8655 8.33042H32.2793L27.3065 21.4268C27.0837 21.9944 26.9166 22.4638 26.8052 22.8351C26.7175 23.094 26.6536 23.3603 26.6142 23.6307C26.5981 23.7495 26.5981 23.87 26.6142 23.9888V24.14H25.0229V24.0365L25.19 23.7024C25.2616 23.5512 25.381 23.2886 25.5322 22.9067C25.6833 22.5248 25.8822 22.0474 26.1209 21.4348L32.0247 6.17421C32.5576 6.17232 33.0887 6.11094 33.608 5.99121ZM36.7906 18.6341V19.7082H27.5849V18.6341H36.7906Z" fill="white"/>
<path d="M56.2523 7.68598C56.8864 8.17132 57.3944 8.80198 57.7337 9.52481C58.0729 10.2476 58.2334 11.0414 58.2017 11.8393C58.2307 13.0165 57.8668 14.1699 57.1673 15.1173C56.4583 16.0426 55.5088 16.7555 54.4223 17.1781C53.2537 17.6455 52.0051 17.8806 50.7464 17.8703C50.5077 17.8703 50.269 17.8703 50.0383 17.8703C49.8076 17.8703 49.5689 17.8305 49.3302 17.7907V16.9951H49.6643C50.5181 17.0111 51.3617 16.8084 52.1149 16.4063C52.8228 16.0076 53.3982 15.4101 53.7699 14.6877C54.1781 13.8596 54.38 12.9452 54.3587 12.0223C54.3811 11.1254 54.2158 10.2338 53.8733 9.40458C53.5736 8.73525 53.0694 8.17815 52.4332 7.81328C51.7287 7.42203 50.9312 7.22953 50.1258 7.25633H47.898L48.3117 6.85055V21.4268C48.3117 21.9042 48.3117 22.2941 48.3117 22.6044C48.3117 22.9147 48.3117 23.1693 48.3515 23.4C48.3658 23.6109 48.3923 23.8208 48.4311 24.0286V24.132H44.3335V24.0286C44.3335 23.8217 44.3971 23.6149 44.4131 23.4C44.429 23.1852 44.4131 22.9306 44.4131 22.6044C44.4131 22.2782 44.4131 21.9042 44.4131 21.4268V8.86354C44.4131 8.38615 44.4131 7.99628 44.4131 7.68598C44.4131 7.37567 44.4131 7.12107 44.4131 6.89033C44.4131 6.65959 44.3653 6.46863 44.3335 6.26177V6.17424H50.9772C52.8555 6.07044 54.714 6.60304 56.2523 7.68598Z" fill="white"/>
<path d="M72.937 6.17432V7.43144H72.8336C72.637 7.38098 72.4378 7.34114 72.2369 7.31209C72.0379 7.31209 71.7992 7.27231 71.5128 7.26436H70.5023H68.553L68.9667 6.85857V21.4269C68.9667 21.8884 68.9667 22.2703 68.9667 22.5647C68.9667 22.8591 68.9667 23.1137 69.0145 23.3126C69.0622 23.5115 69.0702 23.6945 69.102 23.8855V24.0128V24.1162H64.9408V24.0128V23.8855C64.9408 23.6945 65.0044 23.5035 65.0362 23.3126C65.0681 23.1216 65.0362 22.867 65.084 22.5647C65.1317 22.2623 65.084 21.8884 65.084 21.4269V6.84266L65.4897 7.24844H63.5802H62.5697C62.2939 7.24844 62.0552 7.26436 61.8536 7.29618C61.6501 7.3252 61.4482 7.36504 61.2489 7.41553H61.1455V6.17432H72.937Z" fill="white"/>
<path d="M81.8724 5.99121C82.325 5.90657 82.754 5.72468 83.1295 5.45813L88.7945 21.4268L89.3355 22.8988C89.4708 23.2648 89.5742 23.5273 89.6379 23.6944C89.6851 23.8085 89.7382 23.92 89.797 24.0286V24.132H85.23V23.949C85.2432 23.822 85.2432 23.6941 85.23 23.5671C85.2057 23.2982 85.1578 23.0319 85.0868 22.7714C84.9993 22.4214 84.864 21.9758 84.681 21.4029L80.1299 8.33042H80.5436L75.5867 21.4268C75.364 22.005 75.1969 22.4744 75.0855 22.8351C74.9978 23.094 74.9339 23.3603 74.8945 23.6307C74.8784 23.7495 74.8784 23.87 74.8945 23.9888V24.14H73.3032V24.0365L73.4703 23.7024C73.5419 23.5512 73.6613 23.2886 73.8124 22.9067C73.9636 22.5248 74.1625 22.0474 74.4012 21.4348L80.289 6.17421C80.822 6.17232 81.353 6.11094 81.8724 5.99121ZM85.055 18.6341V19.7082H75.8493V18.6341H85.055Z" fill="white"/>
<path d="M96.9023 6.17432V6.27775C96.9023 6.48462 96.8466 6.69149 96.8307 6.90631C96.8148 7.12114 96.8307 7.37575 96.8307 7.70196C96.8307 8.02818 96.8307 8.40213 96.8307 8.87952V21.4269C96.8307 21.9043 96.8307 22.2942 96.8307 22.6045C96.8307 22.9148 96.8307 23.1694 96.8307 23.4001C96.8307 23.6308 96.8307 23.8218 96.9023 24.0287V24.1321H92.8047V24.0287C92.8047 23.8218 92.8604 23.6149 92.8843 23.4001C92.9081 23.1853 92.8843 22.9307 92.8843 22.6045C92.8843 22.2782 92.8843 21.9043 92.8843 21.4269V8.86361C92.8843 8.38622 92.8843 7.99635 92.8843 7.68605C92.8843 7.37575 92.8843 7.12114 92.8843 6.8904C92.8843 6.65966 92.8365 6.46871 92.8047 6.26184V6.17432H96.9023Z" fill="white"/>
<path d="M102.448 6.1743L116.388 19.0956H115.727V8.8636C115.727 8.38621 115.727 7.99634 115.727 7.68604C115.727 7.37573 115.727 7.12113 115.679 6.89039C115.652 6.67872 115.612 6.46884 115.56 6.26183V6.1743H116.96V6.27774C116.96 6.48461 116.897 6.69148 116.881 6.9063C116.865 7.12113 116.881 7.37573 116.881 7.70195C116.881 8.02817 116.881 8.40212 116.881 8.87951V21.6815C116.881 22.0714 116.881 22.4135 116.881 22.7079C116.881 23.0023 116.881 23.2489 116.929 23.4638C116.954 23.6855 117.002 23.9041 117.072 24.1162H116.276L102.241 11.2267H102.909V21.4269C102.909 21.9043 102.909 22.2941 102.909 22.6045C102.909 22.9148 102.909 23.1694 102.965 23.4001C102.99 23.6116 103.027 23.8215 103.076 24.0287V24.1321H101.692V24.0287C101.731 23.8209 101.757 23.611 101.772 23.4001C101.772 23.1853 101.772 22.9307 101.772 22.6045C101.772 22.2782 101.772 21.9043 101.772 21.4269V8.60899C101.772 8.21912 101.772 7.87699 101.772 7.5826C101.769 7.3165 101.751 7.0508 101.716 6.78695C101.689 6.56608 101.644 6.34783 101.581 6.13452L102.448 6.1743Z" fill="white"/>
<path d="M140.337 1.59131V1.71861C140.289 1.98118 140.257 2.24374 140.233 2.51426C140.209 2.78478 140.233 3.111 140.185 3.50087C140.138 3.89073 140.185 4.37608 140.185 4.98077V20.2254C140.233 21.9386 139.83 23.6343 139.016 25.1425C138.245 26.4831 137.119 27.5845 135.762 28.3251C134.285 29.1257 132.661 29.6183 130.988 29.7732V28.9775C131.893 28.6644 132.698 28.115 133.319 27.3862C134.042 26.5102 134.563 25.4863 134.847 24.3866C135.244 22.8923 135.428 21.3495 135.396 19.8037V4.97282C135.396 4.36812 135.396 3.87482 135.396 3.49291C135.396 3.111 135.396 2.77683 135.348 2.5063C135.3 2.23578 135.292 1.98118 135.245 1.71066V1.59131H140.337Z" fill="white"/>
<path d="M151.834 5.99121C152.287 5.90856 152.716 5.7265 153.091 5.45813L158.756 21.4268L159.297 22.8988C159.432 23.2648 159.535 23.5273 159.599 23.6944C159.663 23.8615 159.726 23.9649 159.758 24.0286V24.132H155.191V23.949C155.208 23.8223 155.208 23.6938 155.191 23.5671C155.167 23.2982 155.119 23.0319 155.048 22.7714C154.968 22.4214 154.825 21.9758 154.642 21.4029L150.091 8.33042H150.505L145.532 21.4268C145.309 22.005 145.142 22.4744 145.031 22.8351C144.943 23.094 144.879 23.3603 144.84 23.6307C144.824 23.7495 144.824 23.87 144.84 23.9888V24.14H143.249V24.0365L143.416 23.7024C143.487 23.5512 143.607 23.2886 143.758 22.9067C143.909 22.5248 144.108 22.0474 144.347 21.4348L150.274 6.18217C150.799 6.17591 151.322 6.11187 151.834 5.99121ZM155.016 18.6341V19.7082H145.787V18.6341H155.016Z" fill="white"/>
<path d="M177.772 12.0462H177.175C177.066 11.0195 176.711 10.0341 176.141 9.17392C175.624 8.39019 174.925 7.7432 174.104 7.28824C173.327 6.85845 172.453 6.63389 171.566 6.6358C170.47 6.63426 169.4 6.97043 168.502 7.59854C167.47 8.34217 166.665 9.35888 166.179 10.5345C165.538 12.0839 165.235 13.7519 165.288 15.4277C165.232 16.9579 165.503 18.4823 166.084 19.8993C166.524 20.9807 167.267 21.9119 168.224 22.5806C169.075 23.1527 170.079 23.4549 171.104 23.4479C171.988 23.4468 172.859 23.2311 173.642 22.8193C174.499 22.3878 175.249 21.7708 175.838 21.0132C176.483 20.1901 176.941 19.2374 177.183 18.2205H177.78V21.5781C176.853 22.4965 175.759 23.2285 174.557 23.7343C173.315 24.2636 171.977 24.5344 170.627 24.5299C168.968 24.5369 167.337 24.1039 165.9 23.275C164.463 22.4462 163.272 21.2511 162.447 19.8117C161.61 18.3609 161.176 16.7128 161.19 15.0379C161.179 13.3775 161.605 11.7435 162.427 10.3005C163.248 8.85758 164.435 7.65664 165.869 6.8188C167.316 5.97352 168.966 5.53633 170.643 5.55372C172.009 5.54323 173.363 5.81407 174.621 6.34937C175.809 6.8599 176.889 7.59162 177.803 8.50558L177.772 12.0462Z" fill="white"/>
<path d="M185.975 6.17432V6.27775C185.926 6.48492 185.888 6.6948 185.863 6.90631C185.863 7.12114 185.816 7.37575 185.808 7.70196C185.8 8.02818 185.808 8.40213 185.808 8.87952V14.1626H185.386L191.027 8.87952C191.505 8.43396 191.934 8.02022 192.324 7.63831C192.714 7.2564 192.992 6.95405 193.175 6.73127C193.304 6.60981 193.402 6.45993 193.462 6.29366V6.17432H195.483V6.27775C195.3 6.41301 195.109 6.56418 194.91 6.73923C194.711 6.91427 194.488 7.11318 194.226 7.34392L193.382 8.13957L192.587 8.87952L190.614 10.7493V9.95365L195.539 20.8938C195.809 21.5539 196.139 22.1878 196.525 22.7875C196.791 23.1623 197.101 23.5041 197.448 23.8059V24.1162C196.655 24.3221 195.825 24.3349 195.026 24.1535C194.227 23.9721 193.483 23.6019 192.857 23.0739C192.151 22.4865 191.604 21.7315 191.266 20.8779L187.805 12.6032H188.449L185.45 15.3959L185.784 14.7037V21.3951C185.784 21.8725 185.784 22.2623 185.784 22.5726C185.784 22.8829 185.784 23.1375 185.84 23.3683C185.864 23.5798 185.902 23.7897 185.951 23.9968V24.1003H181.806V23.9968C181.806 23.79 181.861 23.5831 181.877 23.3683C181.893 23.1535 181.877 22.8989 181.877 22.5726C181.877 22.2464 181.877 21.8725 181.877 21.3951V8.86361C181.877 8.38622 181.877 7.99635 181.877 7.68605C181.877 7.37575 181.877 7.12114 181.877 6.8904C181.877 6.65966 181.837 6.46871 181.806 6.26184V6.17432H185.975Z" fill="white"/>
</svg>
